<?xml version="1.0" encoding="UTF-8"?>
<svg xmlns="http://www.w3.org/2000/svg" xmlns:xlink="http://www.w3.org/1999/xlink" version="1.1" viewBox="0 0 240 240">
  <!-- Generator: Adobe Illustrator 29.2.1, SVG Export Plug-In . SVG Version: 2.1.0 Build 116)  -->
  <defs>
    <style>
      .st0 {
        fill: none;
      }

      .st1 {
        fill: #95caad;
      }

      .st2 {
        fill: #223c4b;
      }

      .st3 {
        fill: #951a46;
      }

      .st4 {
        isolation: isolate;
      }

      .st5 {
        fill: #471640;
      }

      .st6 {
        fill: #f9f2d9;
      }

      .st7 {
        fill: #dd5b3e;
        mix-blend-mode: multiply;
      }

      .st8 {
        fill: #f4ce8e;
      }

      .st9 {
        clip-path: url(#clippath);
      }
    </style>
    <clipPath id="clippath">
      <rect class="st0" width="240" height="240"/>
    </clipPath>
  </defs>
  <g class="st4">
    <g id="Layer_1">
      <rect class="st8" width="240" height="240"/>
      <g class="st9">
        <path class="st7" d="M423.1,268.7l-2.3-5h-.4s-.3-.7-.3-.7h-.4s-.3-.7-.3-.7h-.4s-.3-.7-.3-.7h-.4s-.3-.7-.3-.7h-.4s-.3-.7-.3-.7h-.4s-.3-.7-.3-.7h-.4s-.3-.7-.3-.7h-.4s-.3-.7-.3-.7h-.4s-.3-.7-.3-.7h-.4s-.3-.7-.3-.7h-.4s-.3-.7-.3-.7h-.4s-.3-.7-.3-.7h-.4s-.3-.7-.3-.7h-.4s-.3-.7-.3-.7h-.4s-.3-.7-.3-.7h-.4s-.3-.7-.3-.7h-.4s-.3-.7-.3-.7h-.4s-.3-.7-.3-.7h-.4s-.3-.7-.3-.7h-.4s-.3-.7-.3-.7h-.4s-.3-.7-.3-.7h-.4s-.3-.7-.3-.7h-.4s-.3-.7-.3-.7h-.4s-.3-.7-.3-.7h-.4s-.3-.7-.3-.7h-.4s-.3-.7-.3-.7h-.4s-.3-.7-.3-.7h-.4s-.3-.7-.3-.7h-.4s-.3-.7-.3-.7h-.4s-.3-.7-.3-.7h-.4s-.3-.7-.3-.7h-.4s-.3-.7-.3-.7h-.4s-.3-.7-.3-.7h-.4s-.3-.7-.3-.7h-.4s-.3-.7-.3-.7h-.4s-.3-.7-.3-.7h-.4s-.3-.7-.3-.7h-.4s-.3-.7-.3-.7h-.4s-.3-.7-.3-.7h-.4s-.3-.7-.3-.7h-.4s-.3-.7-.3-.7h-.4s-.3-.7-.3-.7h-.4s-.3-.7-.3-.7h-.4s-.3-.7-.3-.7h-.4s-.3-.7-.3-.7h-.4s-.3-.7-.3-.7h-.4s-.3-.7-.3-.7h-.4s-.3-.7-.3-.7h-.4s-.3-.7-.3-.7h-.4s-.3-.7-.3-.7h-.4s-.3-.7-.3-.7h-.4s-.3-.7-.3-.7h-.4s-.3-.7-.3-.7h-.4s-.3-.7-.3-.7h-.4s-.3-.7-.3-.7h-.4s-.3-.7-.3-.7h-.4s-.3-.7-.3-.7h-.4s-.3-.7-.3-.7h-.4s-.3-.7-.3-.7h-.4s-.3-.7-.3-.7h-.4s-.3-.7-.3-.7h-.4s-.3-.7-.3-.7h-.4s-.3-.7-.3-.7h-.4s-.3-.7-.3-.7h-.4s-.3-.7-.3-.7h-.4s-.3-.7-.3-.7h-.4s-.3-.7-.3-.7h-.4s-.3-.7-.3-.7h-.4s-.3-.7-.3-.7h-.4s-.3-.7-.3-.7h-.4s-.3-.7-.3-.7h-.4s-.3-.7-.3-.7h-.4s-.3-.7-.3-.7h-.4s-.3-.7-.3-.7h-.4s-.3-.7-.3-.7h-.4s-.3-.7-.3-.7h-.4s-.3-.7-.3-.7h-.4s-.3-.7-.3-.7h-.4s-.3-.7-.3-.7h-.4s-.3-.7-.3-.7h-.4s-.3-.7-.3-.7h-.4s-.3-.7-.3-.7h-.4s-.3-.7-.3-.7h-.4s-.3-.7-.3-.7h-.4s-.3-.7-.3-.7h-.4s-.3-.7-.3-.7h-.4s-.3-.7-.3-.7h-.4s-.3-.7-.3-.7h-.4s-.3-.7-.3-.7h-.4s-.3-.7-.3-.7h-.4s-.3-.7-.3-.7h-.4s-.3-.7-.3-.7h-.4s-.3-.7-.3-.7h-.4s-.3-.7-.3-.7h-.4s-.3-.7-.3-.7h-.4s-.3-.7-.3-.7h-.4s-.3-.7-.3-.7h-.4s-.3-.7-.3-.7h-.4s-.3-.7-.3-.7h-.4s-.3-.7-.3-.7h-.4s-.3-.7-.3-.7h-.4s-.3-.7-.3-.7h-.4s-.3-.7-.3-.7h-.4s-.3-.7-.3-.7h-.4s-.3-.7-.3-.7h-.4s-.3-.7-.3-.7h-.4s-.3-.7-.3-.7h-.4s-.3-.7-.3-.7h-.4s-.3-.7-.3-.7h-.4s-.3-.7-.3-.7h-.4s-.3-.7-.3-.7h-.4s-.3-.7-.3-.7h-.4s-.3-.7-.3-.7h-.4s-.3-.7-.3-.7h-.4s-.3-.7-.3-.7h-.4s-.3-.7-.3-.7h-.4s-.3-.7-.3-.7h-.4s-.3-.7-.3-.7h-.4s-.3-.7-.3-.7h-.4s-.3-.7-.3-.7h-.4s-.3-.7-.3-.7h-.4s-.3-.7-.3-.7h-.4s-.3-.7-.3-.7h-.4s-.3-.7-.3-.7h-.4s-.3-.7-.3-.7h-.4s-.3-.7-.3-.7h-.4s-.3-.7-.3-.7h-.4s-.3-.7-.3-.7h-.4s-.3-.7-.3-.7h-.4s-.3-.7-.3-.7h-.4s-.3-.7-.3-.7h-.4s-.3-.7-.3-.7h-.4s-.3-.7-.3-.7h-.4s-.3-.7-.3-.7h-.4s-.3-.7-.3-.7h-.4s-.3-.7-.3-.7h-.4s-.3-.7-.3-.7h-.4s-.3-.7-.3-.7h-.4s-.3-.7-.3-.7h-.4s-.3-.7-.3-.7h-.4s-.3-.7-.3-.7h-.4s-.3-.7-.3-.7h-.4s-.3-.7-.3-.7h-.4s-.3-.7-.3-.7h-.4s-.3-.7-.3-.7h-.4s-.3-.7-.3-.7h-.4s-.3-.7-.3-.7h-.4s-.3-.7-.3-.7h-.4s-.3-.7-.3-.7h-.4s-.3-.7-.3-.7h-.4s-.3-.7-.3-.7h-.4s-.3-.7-.3-.7h-.4s-.3-.7-.3-.7h-.4s-.3-.7-.3-.7h-.4s-.3-.7-.3-.7h-.4s-.3-.7-.3-.7h-.4s-.3-.7-.3-.7h-.4s-.3-.7-.3-.7h-.4s-.3-.7-.3-.7h-.4s-.3-.7-.3-.7h-.4s-.3-.7-.3-.7h-.4s-.3-.7-.3-.7h-.4s-.3-.7-.3-.7h-.4s-.3-.7-.3-.7h-.4s-.3-.7-.3-.7h-.4s-.3-.7-.3-.7h-.4s-.3-.7-.3-.7h-.4s-.3-.7-.3-.7h-.4s-.3-.7-.3-.7h-.4s-.3-.7-.3-.7h-.4s-.3-.7-.3-.7h-.4s-.3-.7-.3-.7h-.4s-.3-.7-.3-.7h-.4s-.3-.7-.3-.7h-.4s-.3-.7-.3-.7h-.4s-.3-.7-.3-.7h-.4s-.3-.7-.3-.7h-.4s-.3-.7-.3-.7h-.4s-.3-.7-.3-.7h-.4s-.3-.7-.3-.7h-.4s-.3-.7-.3-.7h-.4s-.3-.7-.3-.7h-.4s-.3-.7-.3-.7h-.4s-.3-.7-.3-.7h-.4s-.3-.7-.3-.7h-.4s-.3-.7-.3-.7h-.4s-.3-.7-.3-.7h-.4s-.3-.7-.3-.7h-.4s-.3-.7-.3-.7h-.4s-.3-.7-.3-.7h-.4s-.3-.7-.3-.7h-.4s-.3-.7-.3-.7h-.4s-.3-.7-.3-.7h-.4s-.3-.7-.3-.7h-.4s-.3-.7-.3-.7h-.4s-.3-.7-.3-.7h-.4s-.3-.7-.3-.7h-.4s-.3-.7-.3-.7h-.4s-.3-.7-.3-.7h-.4s-.3-.7-.3-.7h-.4s-.3-.7-.3-.7h-.4s-.3-.7-.3-.7h-.4s-.3-.7-.3-.7h-.4s-.3-.7-.3-.7h-.4s-.3-.7-.3-.7h-.4s-.3-.7-.3-.7h-.4s-.3-.7-.3-.7h-.4s-.3-.7-.3-.7h-.4s-.3-.7-.3-.7h-.4s-.3-.7-.3-.7h-.4s-.3-.7-.3-.7h-.4s-.3-.7-.3-.7h-.4s-.3-.7-.3-.7h-.4s-.3-.7-.3-.7h-.4s-.3-.7-.3-.7h-.4s-.3-.7-.3-.7h-.4s-.3-.7-.3-.7h-.4s-.3-.7-.3-.7h-.4s-.3-.7-.3-.7h-.4s-.3-.7-.3-.7h-.4s-.3-.7-.3-.7h-.4s-.3-.7-.3-.7h-.4s-.3-.7-.3-.7h-.4s-.3-.7-.3-.7h-.4s-.3-.7-.3-.7h-.4s-.3-.7-.3-.7h-.4s-.3-.7-.3-.7h-.4s-.3-.7-.3-.7h-.4s-.3-.7-.3-.7h-.4s-.3-.7-.3-.7h-.4s-.3-.7-.3-.7h-.4s-.3-.7-.3-.7h-.4s-.3-.7-.3-.7h-.4s-.3-.7-.3-.7h-.4s-.3-.7-.3-.7h-.4s-.3-.7-.3-.7h-.4s-.3-.7-.3-.7h-.4s-.3-.7-.3-.7h-.4s-.3-.7-.3-.7h-.4s-.3-.7-.3-.7h-.4s-.3-.7-.3-.7h-.4s-.3-.7-.3-.7h-.4s-.3-.7-.3-.7h-.4s-.3-.7-.3-.7h-.4s-.3-.7-.3-.7h-.4s-.3-.7-.3-.7h-.4s-.3-.7-.3-.7h-.4s-.3-.7-.3-.7h-.4s-.3-.7-.3-.7h-.4s-.3-.7-.3-.7h-.4s-.3-.7-.3-.7h-.4s-.3-.7-.3-.7h-.4s-.3-.7-.3-.7h-.4s-.3-.7-.3-.7h-.4s-.3-.7-.3-.7h-.4s-.3-.7-.3-.7h-.4s-.3-.7-.3-.7h-.4s-.3-.7-.3-.7h-.4s-.3-.7-.3-.7h-.4s-.3-.7-.3-.7h-.4s-.3-.7-.3-.7h-.4s-.3-.7-.3-.7h-.4s-.3-.7-.3-.7h-.4s-.3-.7-.3-.7h-.4s-.3-.7-.3-.7h-.4s-.3-.7-.3-.7h-.4s-.3-.7-.3-.7h-.4s-.3-.7-.3-.7h-.4s-.3-.7-.3-.7h-.4s-.3-.7-.3-.7h-.4s-.3-.7-.3-.7h-.4s-.3-.7-.3-.7h-.4s-.3-.7-.3-.7h-.4s-.3-.7-.3-.7h-.4s-.3-.7-.3-.7h-.4s-.3-.7-.3-.7h-.4s-.3-.7-.3-.7h-.4s-.3-.7-.3-.7h-.4s-.3-.7-.3-.7h-.4s-.3-.7-.3-.7h-.4s-.3-.7-.3-.7h-.4s-.3-.7-.3-.7h-.4s-.3-.7-.3-.7h-.4s-.3-.7-.3-.7h-.4s-.3-.7-.3-.7h-.4s-.3-.7-.3-.7h-.4s-.3-.7-.3-.7h-.4s-.3-.7-.3-.7h-.4s-.3-.7-.3-.7h-.4s-.3-.7-.3-.7h-.4s-.3-.7-.3-.7h-.4s-.3-.7-.3-.7h-.4s-.3-.7-.3-.7h-.4s-.3-.7-.3-.7h-.4s-.3-.7-.3-.7h-.4s-.3-.7-.3-.7h-.4s-.3-.7-.3-.7h-.4s-.3-.7-.3-.7h-.4s-.3-.7-.3-.7h-.4s-.3-.7-.3-.7h-.4s-.3-.7-.3-.7L21.1,25.7l-4.7,5.1h-.3s26.2,56.9,26.2,56.9h0s0,0,0,0l2.4,5c.2.4.5.7.9,1,.2.3.4.5.7.7.2.3.4.5.7.7.2.3.4.5.7.7.2.3.4.5.7.7.2.3.4.5.7.7.2.3.4.5.7.7.2.3.4.5.7.7.2.3.4.5.7.7.2.3.4.5.7.7.2.3.4.5.7.7.2.3.4.5.7.7.2.3.4.5.7.7.2.3.4.5.7.7.2.3.4.5.7.7.2.3.4.5.7.7.2.3.4.5.7.7.2.3.4.5.7.7.2.3.4.5.7.7.2.3.4.5.7.7.2.3.4.5.7.7.2.3.4.5.7.7.2.3.4.5.7.7.2.3.4.5.7.7.2.3.4.5.7.7.2.3.4.5.7.7.2.3.4.5.7.7.2.3.4.5.7.7.2.3.4.5.7.7.2.3.4.5.7.7.2.3.4.5.7.7.2.3.4.5.7.7.2.3.4.5.7.7.2.3.4.5.7.7.2.3.4.5.7.7.2.3.4.5.7.7.2.3.4.5.7.7.2.3.4.5.7.7.2.3.4.5.7.7.2.3.4.5.7.7.2.3.4.5.7.7.2.3.4.5.7.7.2.3.4.5.7.7.2.3.4.5.7.7.1.2.3.3.4.5l-44.1-2.8-2.4,37h.4s0,.4,0,.4h.4s0,.4,0,.4h.4s0,.4,0,.4h.4s0,.4,0,.4h.4s0,.4,0,.4h.4s0,.4,0,.4h.4s0,.4,0,.4h.4s0,.4,0,.4h.4s0,.4,0,.4h.4s0,.4,0,.4h.4s0,.4,0,.4h.4s0,.4,0,.4h.4s0,.4,0,.4h.4s0,.4,0,.4h.4s0,.4,0,.4h.4s0,.4,0,.4h.4s0,.4,0,.4h.4s0,.4,0,.4h.4s0,.4,0,.4h.4s0,.4,0,.4h.4s0,.4,0,.4h.4s0,.4,0,.4h.4s0,.4,0,.4h.4s0,.4,0,.4h.4s0,.4,0,.4h.4s0,.4,0,.4h.4s0,.4,0,.4h.4s0,.4,0,.4h.4s0,.4,0,.4h.4s0,.4,0,.4h.4s0,.4,0,.4h.4s0,.4,0,.4h.4s0,.4,0,.4h.4s0,.4,0,.4h.4s0,.4,0,.4h.4s0,.4,0,.4h.4s0,.4,0,.4h.4s0,.4,0,.4h.4s0,.4,0,.4h.4s0,.4,0,.4h.4s0,.4,0,.4h.4s0,.4,0,.4h.4s0,.4,0,.4h.4s0,.4,0,.4h.4s0,.4,0,.4h.4s0,.4,0,.4h.4s0,.4,0,.4h.4s0,.4,0,.4h.4s0,.4,0,.4h.4s0,.4,0,.4h.4s0,.4,0,.4h.4s0,.4,0,.4h.4s0,.4,0,.4h.4s0,.4,0,.4h.4s0,.4,0,.4h.4s0,.4,0,.4h.4s0,.4,0,.4h.4s0,.4,0,.4h.4s0,.4,0,.4h.4s0,.4,0,.4h.4s0,.4,0,.4h.4s0,.4,0,.4h.4s0,.4,0,.4h.4s0,.4,0,.4h.4s0,.4,0,.4h.4s0,.4,0,.4h.4s0,.4,0,.4h.4s0,.4,0,.4h.4s0,.4,0,.4h.4s0,.4,0,.4h.4s0,.4,0,.4h.4s0,.4,0,.4h.4s0,.4,0,.4h.4s0,.4,0,.4h.4s0,.4,0,.4h.4s0,.4,0,.4h.4s0,.4,0,.4h.4s0,.4,0,.4h.4s0,.4,0,.4h.4s0,.4,0,.4h.4s0,.4,0,.4h.4s0,.4,0,.4h.4s0,.4,0,.4h.4s0,.4,0,.4h.4s0,.4,0,.4h.4s0,.4,0,.4h.4s0,.4,0,.4h.4s0,.4,0,.4h.4s0,.4,0,.4h.4s0,.4,0,.4h.4s0,.4,0,.4h.4s0,.4,0,.4h.4s0,.4,0,.4h.4s0,.4,0,.4h.4s0,.4,0,.4h.4s0,.4,0,.4h.4s0,.4,0,.4h.4s0,.4,0,.4h.4s0,.4,0,.4h.4s0,.4,0,.4h.4s0,.4,0,.4h.4s0,.4,0,.4h.4s0,.4,0,.4h.4s0,.4,0,.4h.4s0,.4,0,.4h.4s0,.4,0,.4h.4s0,.4,0,.4h.4s0,.4,0,.4h.4s0,.4,0,.4h.4s0,.4,0,.4h.4s0,.4,0,.4h.4s0,.4,0,.4h.4s0,.4,0,.4h.4s0,.4,0,.4h.4s0,.4,0,.4h.4s0,.4,0,.4h.4s0,.4,0,.4h.4s0,.4,0,.4h.4s0,.4,0,.4h.4s0,.4,0,.4h.4s0,.4,0,.4h.4s0,.4,0,.4h.4s0,.4,0,.4h.4s0,.4,0,.4h.4s0,.4,0,.4h.4s0,.4,0,.4h.4s0,.4,0,.4h.4s0,.4,0,.4h.4s0,.4,0,.4h.4s0,.4,0,.4h.4s0,.4,0,.4h.4s0,.4,0,.4h.4s0,.4,0,.4h.4s0,.4,0,.4h.4s0,.4,0,.4h.4s0,.4,0,.4h.4s0,.4,0,.4h.4s0,.4,0,.4h.4s0,.4,0,.4h.4s0,.4,0,.4h.4s0,.4,0,.4h.4s0,.4,0,.4h.4s0,.4,0,.4h.4s0,.4,0,.4h.4s0,.4,0,.4h.4s0,.4,0,.4h.4s0,.4,0,.4h.4s0,.4,0,.4h.4s0,.4,0,.4h.4s0,.4,0,.4h.4s0,.4,0,.4h.4s0,.4,0,.4h.4s0,.4,0,.4h.4s0,.4,0,.4h.4s0,.4,0,.4h.4s0,.4,0,.4h.4s0,.4,0,.4h.4s0,.4,0,.4h.4s0,.4,0,.4h.4s0,.4,0,.4h.4s0,.4,0,.4h.4s0,.4,0,.4h.4s0,.4,0,.4h.4s0,.4,0,.4h.4s0,.4,0,.4h.4s0,.4,0,.4h.4s0,.4,0,.4h.4s0,.4,0,.4h.4s0,.4,0,.4h.4s0,.4,0,.4h.4s0,.4,0,.4h.4s0,.4,0,.4h.4s0,.4,0,.4h.4s0,.4,0,.4h.4s0,.4,0,.4h.4s0,.4,0,.4h.4s0,.4,0,.4h.4s0,.4,0,.4h.4s0,.4,0,.4h.4s0,.4,0,.4h.4s0,.4,0,.4h.4s0,.4,0,.4h.4s0,.4,0,.4h.4s0,.4,0,.4h.4s0,.4,0,.4h.4s0,.4,0,.4h.4s0,.4,0,.4h.4s0,.4,0,.4h.4s0,.4,0,.4h.4s0,.4,0,.4h.4s0,.4,0,.4h.4s0,.4,0,.4h.4s0,.4,0,.4h.4s0,.4,0,.4h.4s0,.4,0,.4h.4s0,.4,0,.4h.4s0,.4,0,.4h.4s0,.4,0,.4h.4s0,.4,0,.4h.4s0,.4,0,.4h.4s0,.4,0,.4h.4s0,.4,0,.4h.4s0,.4,0,.4h.4s0,.4,0,.4h.4s0,.4,0,.4h.4s0,.4,0,.4h.4s0,.4,0,.4h.4s0,.4,0,.4h.4s0,.4,0,.4h.4s0,.4,0,.4h.4s0,.4,0,.4h.4s0,.4,0,.4h.4s0,.4,0,.4h.4s0,.4,0,.4h.4s0,.4,0,.4h.4s0,.4,0,.4h.4s0,.4,0,.4h.4s0,.4,0,.4h.4s0,.4,0,.4h.4s0,.4,0,.4h.4s0,.4,0,.4h.4s0,.4,0,.4h.4s0,.4,0,.4h.4s0,.4,0,.4h.4s0,.4,0,.4h.4s0,.4,0,.4h.4s0,.4,0,.4h.4s0,.4,0,.4h.4s0,.4,0,.4h.4s0,.4,0,.4h.4s0,.4,0,.4h.4s0,.4,0,.4h.4s0,.4,0,.4h.4s0,.4,0,.4h.4s0,.4,0,.4h.4s0,.4,0,.4h.4s0,.4,0,.4h.4s0,.4,0,.4h.4s0,.4,0,.4h.4s0,.4,0,.4h.4s0,.4,0,.4h.4s0,.4,0,.4h.4s0,.4,0,.4h.4s0,.4,0,.4h.4s0,.4,0,.4h.4s0,.4,0,.4h.4s0,.4,0,.4h.4s0,.4,0,.4h.4s0,.4,0,.4h.4s0,.4,0,.4h.4s0,.4,0,.4h.4s0,.4,0,.4h.4s0,.4,0,.4h.4s0,.4,0,.4h.4s0,.4,0,.4h.4s0,.4,0,.4h.4s0,.4,0,.4h.4s0,.4,0,.4h.4s0,.4,0,.4h.4s0,.4,0,.4h.4s0,.4,0,.4h.4s0,.4,0,.4h.4s0,.4,0,.4h.4s0,.4,0,.4h.4s0,.4,0,.4h.4s0,.4,0,.4h.4s0,.4,0,.4h.4s0,.4,0,.4h.4s0,.4,0,.4h.4s0,.4,0,.4h.4s0,.4,0,.4h.4s0,.4,0,.4h.4s0,.4,0,.4h.4s0,.4,0,.4h.4s0,.4,0,.4h.4s0,.4,0,.4h.4s0,.4,0,.4h.4s0,.4,0,.4h.4s0,.4,0,.4h.4s0,.4,0,.4h.4s0,.4,0,.4h.4s0,.4,0,.4h.4s0,.4,0,.4h.4s0,.4,0,.4h.4s0,.4,0,.4h.4s0,.4,0,.4h.4s0,.4,0,.4h.4s0,.4,0,.4h.4s0,.4,0,.4h.4s0,.4,0,.4h.4s0,.4,0,.4h.4s0,.4,0,.4h.4s0,.4,0,.4h.4s0,.4,0,.4h.4s0,.4,0,.4h.4s0,.4,0,.4h.4s0,.4,0,.4h.4s0,.4,0,.4h.4s0,.4,0,.4h.4s0,.4,0,.4h.4s0,.4,0,.4l86.2,5.5c0,0,.1.1.2.2.2.3.4.5.7.7.2.3.4.5.7.7.2.3.4.5.7.7.2.3.4.5.7.7.2.3.4.5.7.7.2.3.4.5.7.7.2.3.4.5.7.7.2.3.4.5.7.7.2.3.4.5.7.7.2.3.4.5.7.7.2.3.4.5.7.7.2.3.4.5.7.7.2.3.4.5.7.7.2.3.4.5.7.7.2.3.4.5.7.7.2.3.4.5.7.7.2.3.4.5.7.7.2.3.4.5.7.7.2.3.4.5.7.7.2.3.4.5.7.7.2.3.4.5.7.7.2.3.4.5.7.7.2.3.4.5.7.7.2.3.4.5.7.7.2.3.4.5.7.7.2.3.4.5.7.7.6.9,1.9,1.6,3.1,1.7l14.2,1.1c.2.3.4.5.7.7.2.3.5.5.7.7.2.3.5.5.7.7.2.3.5.5.7.7.2.3.5.5.7.7.2.3.5.5.7.7.2.3.5.5.7.7.2.3.5.5.7.7.2.3.5.5.7.7.2.3.5.5.7.7.2.3.5.5.7.7.2.3.5.5.7.7.2.3.5.5.7.7.2.3.5.5.7.7.2.3.5.5.7.7.2.3.5.5.7.7.2.3.5.5.7.7.2.3.5.5.7.7.2.3.5.5.7.7.2.3.5.5.7.7.2.3.5.5.7.7.2.3.5.5.7.7.2.3.5.5.7.7.2.3.5.5.7.7.7.9,1.6,1.5,2.7,1.5l41.9,3c2.5.2,4.8-2.5,5-6l.6-8.1c0-1,0-2-.3-2.8l33,2.4c1.4.1,3-.5,3.7-1.3l3.3-4.1s0,0,0,0h0l36.6-46.4h-.3Z"/>
        <g>
          <rect class="st6" x="79.7" y="78.7" width="37.1" height="133.1" transform="translate(-53 234) rotate(-86.3)"/>
          <g>
            <rect class="st8" x="35.2" y="125.3" width="6.1" height="6.1" transform="translate(-92.4 158.3) rotate(-86.3)"/>
            <rect class="st8" x="42.8" y="125.8" width="6.1" height="6.1" transform="translate(-85.7 166.3) rotate(-86.3)"/>
            <rect class="st8" x="50.4" y="126.3" width="6.1" height="6.1" transform="translate(-79.1 174.4) rotate(-86.3)"/>
            <rect class="st8" x="58" y="126.8" width="6.1" height="6.1" transform="translate(-72.5 182.5) rotate(-86.3)"/>
            <rect class="st8" x="65.6" y="127.3" width="6.1" height="6.1" transform="translate(-65.9 190.4) rotate(-86.3)"/>
            <rect class="st8" x="73.2" y="127.8" width="6.1" height="6.1" transform="translate(-59.2 198.5) rotate(-86.3)"/>
            <rect class="st8" x="80.8" y="128.3" width="6.1" height="6.1" transform="translate(-52.6 206.6) rotate(-86.3)"/>
            <rect class="st8" x="88.4" y="128.8" width="6.1" height="6.1" transform="translate(-46 214.6) rotate(-86.3)"/>
            <rect class="st8" x="96" y="129.2" width="6.1" height="6.1" transform="translate(-39.3 222.7) rotate(-86.3)"/>
            <rect class="st8" x="111.2" y="130.2" width="6.1" height="6.1" transform="translate(-26.1 238.8) rotate(-86.3)"/>
            <rect class="st8" x="118.8" y="130.7" width="6.1" height="6.1" transform="translate(-19.4 246.8) rotate(-86.3)"/>
            <rect class="st8" x="126.4" y="131.2" width="6.1" height="6.1" transform="translate(-12.8 254.9) rotate(-86.3)"/>
            <rect class="st8" x="141.6" y="132.2" width="6.1" height="6.1" transform="translate(.5 271) rotate(-86.3)"/>
            <rect class="st8" x="149.2" y="132.7" width="6.1" height="6.1" transform="translate(7.1 279) rotate(-86.3)"/>
            <rect class="st8" x="156.8" y="133.2" width="6.1" height="6.1" transform="translate(13.8 287.1) rotate(-86.3)"/>
            <rect class="st8" x="34.6" y="134" width="6.1" height="6.1" transform="translate(-101.5 165.8) rotate(-86.3)"/>
            <rect class="st8" x="42.2" y="134.5" width="6.1" height="6.1" transform="translate(-94.9 173.9) rotate(-86.3)"/>
            <rect class="st8" x="49.8" y="135" width="6.1" height="6.1" transform="translate(-88.2 181.9) rotate(-86.3)"/>
            <rect class="st8" x="57.4" y="135.4" width="6.1" height="6.1" transform="translate(-81.6 190) rotate(-86.3)"/>
            <rect class="st8" x="65" y="135.9" width="6.1" height="6.1" transform="translate(-75 198) rotate(-86.3)"/>
            <rect class="st8" x="72.6" y="136.4" width="6.1" height="6.1" transform="translate(-68.3 206.1) rotate(-86.3)"/>
            <rect class="st8" x="80.2" y="136.9" width="6.1" height="6.1" transform="translate(-61.7 214.1) rotate(-86.3)"/>
            <rect class="st8" x="87.8" y="137.4" width="6.1" height="6.1" transform="translate(-55.1 222.2) rotate(-86.3)"/>
            <rect class="st8" x="95.4" y="137.9" width="6.1" height="6.1" transform="translate(-48.4 230.2) rotate(-86.3)"/>
            <rect class="st8" x="110.7" y="138.9" width="6.1" height="6.1" transform="translate(-35.2 246.3) rotate(-86.3)"/>
            <rect class="st8" x="118.3" y="139.3" width="6.1" height="6.1" transform="translate(-28.5 254.4) rotate(-86.3)"/>
            <rect class="st8" x="125.9" y="139.8" width="6.1" height="6.1" transform="translate(-21.9 262.4) rotate(-86.3)"/>
            <rect class="st8" x="141.1" y="140.8" width="6.1" height="6.1" transform="translate(-8.6 278.5) rotate(-86.3)"/>
            <rect class="st8" x="148.7" y="141.3" width="6.1" height="6.1" transform="translate(-2.1 286.5) rotate(-86.3)"/>
            <rect class="st8" x="156.3" y="141.8" width="6.1" height="6.1" transform="translate(4.6 294.6) rotate(-86.3)"/>
            <rect class="st8" x="34" y="142.6" width="6.1" height="6.1" transform="translate(-110.6 173.3) rotate(-86.3)"/>
            <rect class="st8" x="41.7" y="143.1" width="6.1" height="6.1" transform="translate(-104 181.4) rotate(-86.3)"/>
            <rect class="st8" x="49.3" y="143.6" width="6.1" height="6.1" transform="translate(-97.4 189.4) rotate(-86.3)"/>
            <rect class="st8" x="56.9" y="144.1" width="6.1" height="6.1" transform="translate(-90.7 197.5) rotate(-86.3)"/>
            <rect class="st8" x="64.5" y="144.6" width="6.1" height="6.1" transform="translate(-84.1 205.6) rotate(-86.3)"/>
            <rect class="st8" x="72.1" y="145" width="6.1" height="6.1" transform="translate(-77.5 213.5) rotate(-86.3)"/>
            <rect class="st8" x="79.7" y="145.5" width="6.1" height="6.1" transform="translate(-70.8 221.7) rotate(-86.3)"/>
            <rect class="st8" x="87.3" y="146" width="6.1" height="6.1" transform="translate(-64.2 229.7) rotate(-86.3)"/>
            <rect class="st8" x="94.9" y="146.5" width="6.1" height="6.1" transform="translate(-57.6 237.7) rotate(-86.3)"/>
            <rect class="st8" x="117.7" y="148" width="6.1" height="6.1" transform="translate(-37.7 261.9) rotate(-86.3)"/>
            <rect class="st8" x="140.5" y="149.4" width="6.1" height="6.1" transform="translate(-17.8 286) rotate(-86.3)"/>
            <rect class="st8" x="148.1" y="149.9" width="6.1" height="6.1" transform="translate(-11.1 294.1) rotate(-86.3)"/>
            <rect class="st8" x="155.7" y="150.4" width="6.1" height="6.1" transform="translate(-4.6 302.1) rotate(-86.3)"/>
            <rect class="st8" x="33.5" y="151.2" width="6.1" height="6.1" transform="translate(-119.8 180.9) rotate(-86.3)"/>
            <rect class="st8" x="41.1" y="151.7" width="6.1" height="6.1" transform="translate(-113.1 188.9) rotate(-86.3)"/>
            <rect class="st8" x="63.9" y="138" width="6.1" height="36.5" transform="translate(-93.3 213) rotate(-86.3)"/>
            <rect class="st8" x="86.7" y="154.7" width="6.1" height="6.1" transform="translate(-73.4 237.2) rotate(-86.3)"/>
            <rect class="st8" x="94.3" y="155.1" width="6.1" height="6.1" transform="translate(-66.7 245.3) rotate(-86.3)"/>
            <rect class="st8" x="109.6" y="156.1" width="6.1" height="6.1" transform="translate(-53.5 261.3) rotate(-86.3)"/>
            <rect class="st8" x="117.2" y="156.6" width="6.1" height="6.1" transform="translate(-46.8 269.4) rotate(-86.3)"/>
            <rect class="st8" x="124.8" y="157.1" width="6.1" height="6.1" transform="translate(-40.2 277.5) rotate(-86.3)"/>
            <rect class="st8" x="140" y="158.1" width="6.1" height="6.1" transform="translate(-26.9 293.5) rotate(-86.3)"/>
            <rect class="st8" x="147.6" y="158.6" width="6.1" height="6.1" transform="translate(-20.3 301.6) rotate(-86.3)"/>
            <rect class="st8" x="155.2" y="159.1" width="6.1" height="6.1" transform="translate(-13.7 309.6) rotate(-86.3)"/>
          </g>
        </g>
        <g>
          <polygon class="st6" points="205.7 51.4 16.3 30.8 21.1 25.7 203.4 46.3 205.7 51.4"/>
          <g>
            <path class="st8" d="M78.1,108c-.2,3.5,1.6,6.4,4.1,6.6l41.9,3c2.5.2,4.8-2.5,5-6l.6-8.1c.3-3.5-1.6-6.4-4.1-6.6l-41.9-3c-2.5-.2-4.8,2.5-5,6l-.6,8.1Z"/>
            <g>
              <path class="st6" d="M166.1,101.9c-.7.8-2.3,1.4-3.7,1.3l-114.4-8.5c-1.4-.1-2.9-1-3.3-2l-2.4-5c-.5-1,.4-1.7,1.8-1.6l123.7,10c1.5.1,2.2.9,1.5,1.7l-3.3,4.1Z"/>
              <path class="st5" d="M108.2,95.9c-.1,1-1.4,1.7-2.9,1.5-1.5-.1-2.7-1-2.6-2,0-1,1.4-1.7,2.9-1.5,1.6.1,2.7,1,2.6,2Z"/>
              <polygon class="st5" points="169.4 97.8 42.2 87.7 16.1 30.7 206 51.3 169.4 97.8"/>
              <polygon class="st6" points="165.2 94.4 47 84.7 26.7 35.2 194.6 53.2 165.2 94.4"/>
              <polygon class="st2" points="142 55.8 77.2 49 76.9 46.2 142.8 53.1 142 55.8"/>
              <polygon class="st1" points="163.4 62.9 98.4 56.3 98.4 55 164 61.7 163.4 62.9"/>
              <polygon class="st1" points="161.6 66.2 98.3 59.9 98.3 58.6 162.3 65 161.6 66.2"/>
              <polygon class="st1" points="159.9 69.6 98.2 63.6 98.2 62.2 160.5 68.4 159.9 69.6"/>
              <polygon class="st1" points="158.2 73 62.8 63.8 62.4 62.4 158.8 71.7 158.2 73"/>
              <polygon class="st1" points="156.4 76.3 63.7 67.6 63.3 66.2 157.1 75.1 156.4 76.3"/>
              <polygon class="st1" points="154.7 79.7 64.6 71.4 64.3 70 155.3 78.4 154.7 79.7"/>
              <polygon class="st1" points="152.9 83 65.5 75.2 65.2 73.8 153.6 81.8 152.9 83"/>
              <polygon class="st1" points="151.2 86.4 66.4 79 66.1 77.6 151.8 85.2 151.2 86.4"/>
              <polygon class="st3" points="90.2 63.3 66.2 61 64 50.4 89.8 53.1 90.2 63.3"/>
            </g>
          </g>
        </g>
      </g>
    </g>
  </g>
</svg>