<?xml version="1.0" encoding="UTF-8"?>
<svg xmlns="http://www.w3.org/2000/svg" xmlns:xlink="http://www.w3.org/1999/xlink" version="1.1" viewBox="0 0 240 240">
  <!-- Generator: Adobe Illustrator 29.2.1, SVG Export Plug-In . SVG Version: 2.1.0 Build 116)  -->
  <defs>
    <style>
      .st0 {
        fill: none;
      }

      .st1 {
        fill: #fff;
      }

      .st1, .st2 {
        opacity: .5;
      }

      .st3 {
        fill: #951a46;
      }

      .st4 {
        isolation: isolate;
      }

      .st5, .st2 {
        fill: #f9f2d9;
      }

      .st6, .st7 {
        fill: #dd5b3e;
      }

      .st8 {
        fill: #ac5329;
      }

      .st9 {
        fill: #795444;
      }

      .st7 {
        mix-blend-mode: multiply;
      }

      .st10 {
        fill: #f4ce8e;
      }

      .st11 {
        clip-path: url(#clippath);
      }
    </style>
    <clipPath id="clippath">
      <rect class="st0" width="240" height="240"/>
    </clipPath>
  </defs>
  <g class="st4">
    <g id="Layer_1">
      <rect class="st10" width="240" height="240"/>
      <g class="st11">
        <path class="st7" d="M307.8,188.6c-.3-.3-.6-.6-.8-.8-.3-.3-.6-.6-.8-.8-.2-.2-.4-.4-.6-.6-.1-.1-.3-.3-.4-.4-.2-.2-.5-.5-.7-.7-.3-.3-.6-.6-.8-.8-.2-.2-.4-.4-.5-.5-.3-.3-.7-.7-1-1-.2-.2-.5-.5-.7-.7-.1-.1-.3-.3-.4-.4-.1-.1-.3-.3-.4-.4-.1-.1-.3-.3-.4-.4-.1-.1-.3-.3-.4-.4-.1-.1-.3-.3-.4-.4-.1-.1-.3-.3-.4-.4-.1-.1-.3-.3-.4-.4-.1-.1-.3-.3-.4-.4-.1-.1-.3-.3-.4-.4-.1-.1-.3-.3-.4-.4-.1-.1-.3-.3-.4-.4-.1-.1-.3-.3-.4-.4-.2-.2-.5-.5-.7-.7-.2-.2-.4-.4-.6-.6-.1-.1-.3-.3-.4-.4-.2-.2-.5-.5-.7-.7-.2-.2-.4-.4-.6-.6-.1-.1-.3-.3-.4-.4-.1-.1-.3-.3-.4-.4-.1-.1-.3-.3-.4-.4-.1-.1-.3-.3-.4-.4-.1-.1-.3-.3-.4-.4-.1-.1-.3-.3-.4-.4-.1-.1-.3-.3-.4-.4-.1-.1-.3-.3-.4-.4-.2-.2-.5-.5-.7-.7-.2-.2-.4-.4-.5-.6-.2-.2-.5-.5-.7-.7-.2-.2-.4-.4-.5-.6-.1-.1-.3-.3-.4-.4-.1-.1-.3-.3-.4-.4-.1-.1-.3-.3-.4-.4-.1-.1-.3-.3-.4-.4-.1-.1-.3-.3-.4-.4-.2-.2-.5-.5-.7-.7-.2-.2-.4-.4-.5-.6-.2-.2-.5-.5-.7-.7-.2-.2-.4-.4-.5-.6-.1-.1-.3-.3-.4-.4-.1-.1-.3-.3-.4-.4-.1-.1-.3-.3-.4-.4-.1-.1-.3-.3-.4-.4-.1-.1-.3-.3-.4-.4-.1-.1-.3-.3-.4-.4-.1-.1-.3-.3-.4-.4-.1-.1-.3-.3-.4-.4-.2-.2-.5-.5-.7-.7-.2-.2-.4-.4-.5-.6-.1-.1-.3-.3-.4-.4-.1-.1-.3-.3-.4-.4-.1-.1-.3-.3-.4-.4-.1-.1-.3-.3-.4-.4-.1-.1-.3-.3-.4-.4-.1-.1-.3-.3-.4-.4-.1-.1-.3-.3-.4-.4-.1-.1-.3-.3-.4-.4-.1-.1-.3-.3-.4-.4-.1-.1-.3-.3-.4-.4-.1-.1-.3-.3-.4-.4-.1-.1-.3-.3-.4-.4-.1-.1-.3-.3-.4-.4-.1-.1-.3-.3-.4-.4-.1-.1-.3-.3-.4-.4-.1-.1-.3-.3-.4-.4-.1-.1-.3-.3-.4-.4-.1-.1-.3-.3-.4-.4-.2-.2-.5-.5-.7-.7-.2-.2-.4-.4-.6-.6-.2-.2-.5-.5-.7-.7-.2-.2-.4-.4-.6-.6-.2-.2-.5-.5-.7-.7-.2-.2-.4-.4-.5-.5-.1-.1-.3-.3-.4-.4-.1-.1-.3-.3-.4-.4-.1-.1-.3-.3-.4-.4-.1-.1-.3-.3-.4-.4-.1-.1-.3-.3-.4-.4-.2-.2-.5-.5-.7-.7-.2-.2-.4-.4-.5-.6-.2-.2-.5-.5-.7-.7-.2-.2-.4-.4-.6-.6-.1-.1-.3-.3-.4-.4-.1-.1-.3-.3-.4-.4-.1-.1-.3-.3-.4-.4-.1-.1-.3-.3-.4-.4-.1-.1-.3-.3-.4-.4-.1-.1-.3-.3-.4-.4-.1-.1-.3-.3-.4-.4-.1-.1-.3-.3-.4-.4-.2-.2-.5-.5-.7-.7-.2-.2-.4-.4-.6-.6-.1-.1-.3-.3-.4-.4-.1-.1-.3-.3-.4-.4-.1-.1-.3-.3-.4-.4-.1-.1-.3-.3-.4-.4-.1-.1-.3-.3-.4-.4-.1-.1-.3-.3-.4-.4-.1-.1-.3-.3-.4-.4-.1-.1-.3-.3-.4-.4-.1-.1-.3-.3-.4-.4-.1-.1-.3-.3-.4-.4-.1-.1-.3-.3-.4-.4-.1-.1-.3-.3-.4-.4-.1-.1-.3-.3-.4-.4-.1-.1-.3-.3-.4-.4-.1-.1-.3-.3-.4-.4-.1-.1-.3-.3-.4-.4-.1-.1-.3-.3-.4-.4-.1-.1-.3-.3-.4-.4-.1-.1-.3-.3-.4-.4-.1-.1-.3-.3-.4-.4-.1-.1-.3-.3-.4-.4-.1-.1-.3-.3-.4-.4-.1-.1-.3-.3-.4-.4-.1-.1-.3-.3-.4-.4-.1-.1-.3-.3-.4-.4-.1-.1-.3-.3-.4-.4-.1-.1-.3-.3-.4-.4-.1-.1-.3-.3-.4-.4-.1-.1-.3-.3-.4-.4-.1-.1-.3-.3-.4-.4-.1-.1-.3-.3-.4-.4-.1-.1-.3-.3-.4-.4-.1-.1-.3-.3-.4-.4-.1-.1-.3-.3-.4-.4-.1-.1-.3-.3-.4-.4-.1-.1-.3-.3-.4-.4-.1-.1-.3-.3-.4-.4-.1-.1-.3-.3-.4-.4-.1-.1-.3-.3-.4-.4-.1-.1-.3-.3-.4-.4-.1-.1-.3-.3-.4-.4-.1-.1-.3-.3-.4-.4-.1-.1-.3-.3-.4-.4-.1-.1-.3-.3-.4-.4-.1-.1-.3-.3-.4-.4-.1-.1-.3-.3-.4-.4-.1-.1-.3-.3-.4-.4-.1-.1-.3-.3-.4-.4-.2-.2-.5-.5-.7-.7-.2-.2-.4-.4-.6-.6-.1-.1-.3-.3-.4-.4-.1-.1-.3-.3-.4-.4-.1-.1-.3-.3-.4-.4-.1-.1-.3-.3-.4-.4-.1-.1-.3-.3-.4-.4-.1-.1-.3-.3-.4-.4-.1-.1-.3-.3-.4-.4-.1-.1-.3-.3-.4-.4-.2-.2-.5-.5-.7-.7-.2-.2-.4-.4-.5-.5-.1-.1-.3-.3-.4-.4-.1-.1-.3-.3-.4-.4-.2-.2-.5-.5-.7-.7-.2-.2-.4-.4-.6-.6-.1-.1-.3-.3-.4-.4-.1-.1-.3-.3-.4-.4-.1-.1-.3-.3-.4-.4-.1-.1-.3-.3-.4-.4-.1-.1-.3-.3-.4-.4-.1-.1-.3-.3-.4-.4-.1-.1-.3-.3-.4-.4-.1-.1-.3-.3-.4-.4-.1-.1-.3-.3-.4-.4-.1-.1-.3-.3-.4-.4-.1-.1-.3-.3-.4-.4-.1-.1-.3-.3-.4-.4-.1-.1-.3-.3-.4-.4-.1-.1-.3-.3-.4-.4-.3-.3-.7-.7-1-1-.2-.2-.5-.5-.7-.7-.2-.2-.5-.5-.7-.7-.2-.2-.4-.4-.5-.6-.1-.1-.3-.3-.4-.4-.1-.1-.3-.3-.4-.4-.1-.1-.3-.3-.4-.4-.1-.1-.3-.3-.4-.4-.1-.1-.3-.3-.4-.4-.1-.1-.3-.3-.4-.4-.1-.1-.3-.3-.4-.4-.1-.1-.3-.3-.4-.4-.1-.1-.3-.3-.4-.4-.1-.1-.3-.3-.4-.4-.1-.1-.3-.3-.4-.4-.1-.1-.3-.3-.4-.4-.1-.1-.3-.3-.4-.4-.1-.1-.3-.3-.4-.4-.1-.1-.3-.3-.4-.4-.1-.1-.3-.3-.4-.4-.1-.1-.3-.3-.4-.4-.1-.1-.3-.3-.4-.4-.1-.1-.3-.3-.4-.4-.1-.1-.3-.3-.4-.4-.1-.1-.3-.3-.4-.4-.1-.1-.3-.3-.4-.4-.1-.1-.3-.3-.4-.4-.1-.1-.3-.3-.4-.4-.1-.1-.3-.3-.4-.4-.1-.1-.3-.3-.4-.4-.2-.2-.5-.5-.7-.7-.2-.2-.4-.4-.6-.6-.1-.1-.3-.3-.4-.4-.1-.1-.3-.3-.4-.4-.1-.1-.3-.3-.4-.4-.1-.1-.3-.3-.4-.4-.1-.1-.3-.3-.4-.4-.1-.1-.3-.3-.4-.4-.1-.1-.3-.3-.4-.4-.1-.1-.3-.3-.4-.4-.2-.2-.5-.5-.7-.7-.2-.2-.4-.4-.6-.6-.1-.1-.3-.3-.4-.4-.1-.1-.3-.3-.4-.4-.1-.1-.3-.3-.4-.4-.1-.1-.3-.3-.4-.4-.1-.1-.3-.3-.4-.4-.1-.1-.3-.3-.4-.4-.1-.1-.3-.3-.4-.4-.1-.1-.3-.3-.4-.4-.1-.1-.3-.3-.4-.4-.1-.1-.3-.3-.4-.4-.1-.1-.3-.3-.4-.4-.1-.1-.3-.3-.4-.4-.1-.1-.3-.3-.4-.4-.1-.1-.3-.3-.4-.4-.1-.1-.3-.3-.4-.4-.1-.1-.3-.3-.4-.4-.1-.1-.3-.3-.4-.4-.1-.1-.3-.3-.4-.4-.1-.1-.3-.3-.4-.4-.1-.1-.3-.3-.4-.4-.1-.1-.3-.3-.4-.4-.1-.1-.3-.3-.4-.4-.1-.1-.3-.3-.4-.4-.2-.2-.5-.5-.7-.7-.2-.2-.4-.4-.5-.6-.1-.1-.3-.3-.4-.4-.1-.1-.3-.3-.4-.4-.1-.1-.3-.3-.4-.4-.1-.1-.3-.3-.4-.4-.1-.1-.3-.3-.4-.4-.1-.1-.3-.3-.4-.4-.1-.1-.3-.3-.4-.4-.1-.1-.3-.3-.4-.4-.1-.1-.3-.3-.4-.4-.2-.2-.5-.5-.7-.7-.2-.2-.4-.4-.5-.6-.4-.4-.9-.9-1.3-1.3-.3-.3-.5-.6-.8-.8-.1-.1-.3-.3-.4-.4-.1-.2-.3-.3-.4-.4-.1-.1-.3-.3-.4-.4-.1-.1-.3-.3-.4-.4-.1-.1-.3-.3-.4-.4-.1-.1-.3-.3-.4-.4-.1-.1-.3-.3-.4-.4-.1-.1-.3-.3-.4-.4-.1-.1-.3-.3-.4-.4-15.3-15.6-36.4-25.4-59.8-25.9-.6,0-1.1,0-1.7,0-47.5,0-86,38.5-86,86s9.7,45.4,25.4,61l.4.4c.1.1.3.3.4.4.1.1.3.3.4.4.1.1.3.3.4.4.1.1.3.3.4.4.1.1.3.3.4.4.1.1.3.3.4.4.1.1.3.3.4.4.1.1.3.3.4.4.1.1.3.3.4.4.1.1.3.3.4.4.1.1.3.3.4.4.1.1.3.3.4.4.1.1.3.3.4.4.1.1.3.3.4.4.1.1.3.3.4.4.1.1.3.3.4.4.1.1.3.3.4.4.1.1.3.3.4.4.1.1.3.3.4.4.1.1.3.3.4.4.1.1.3.3.4.4.1.1.3.3.4.4.1.1.3.3.4.4.1.1.3.3.4.4.1.1.3.3.4.4.1.1.3.3.4.4.1.1.3.3.4.4.1.1.3.3.4.4.1.1.3.3.4.4.1.1.3.3.4.4.1.1.3.3.4.4.1.1.3.3.4.4.1.1.3.3.4.4.1.1.3.3.4.4.1.1.3.3.4.4.1.1.3.3.4.4.1.1.3.3.4.4.1.1.3.3.4.4.1.1.3.3.4.4.1.1.3.3.4.4.1.1.3.3.4.4.1.1.3.3.4.4.1.1.3.3.4.4s.3.3.4.4c.1.1.3.3.4.4.1.1.3.3.4.4.1.1.3.3.4.4.1.1.3.3.4.4.1.1.3.3.4.4.1.1.3.3.4.4.1.1.3.3.4.4.1.1.3.3.4.4.1.1.3.3.4.4.1.1.3.3.4.4.1.1.3.3.4.4.1.1.3.3.4.4.1.1.3.3.4.4.1.1.3.3.4.4.1.1.3.3.4.4.1.1.3.3.4.4.1.1.3.3.4.4.1.1.3.3.4.4s.3.3.4.4c.1.1.3.3.4.4.1.1.3.3.4.4.1.1.3.3.4.4.1.1.3.3.4.4s.3.3.4.4c.1.1.3.3.4.4.1.1.3.3.4.4.1.1.3.3.4.4.1.1.3.3.4.4.1.1.3.3.4.4.1.1.3.3.4.4.1.1.3.3.4.4.1.1.3.3.4.4.1.1.3.3.4.4.1.1.3.3.4.4.1.1.3.3.4.4.1.1.3.3.4.4.1.1.3.3.4.4.1.1.3.3.4.4.1.1.3.3.4.4s.3.3.4.4c.1.1.3.3.4.4.1.1.3.3.4.4.1.1.3.3.4.4.1.1.3.3.4.4.1.1.3.3.4.4.1.1.3.3.4.4.1.1.3.3.4.4.1.2.3.3.5.5.1.1.3.3.4.4.1.1.3.3.4.4.1.1.3.3.4.4l.4.4c.1.1.3.3.4.4.1.1.3.3.4.4.1.1.3.3.4.4.1.1.3.3.4.4s.3.3.4.4c.1.1.3.3.4.4.1.1.3.3.4.4.1.1.3.3.4.4.1.1.3.3.4.4.1.1.3.3.4.4.1.1.3.3.4.4.1.1.3.3.4.4.1.1.3.3.4.4.1.1.3.3.4.4.1.1.3.3.4.4.1.1.3.3.4.4.1.1.3.3.4.4.1.1.3.3.4.4.1.1.3.3.4.4.1.1.3.3.4.4.1.1.3.3.4.4.1.1.3.3.4.4.1.1.3.3.4.4.1.1.3.3.4.4.1.1.3.3.4.4.1.1.3.3.4.4.1.1.3.3.4.4.1.1.3.3.4.4.1.1.3.3.4.4.1.1.3.3.4.4l.4.4c.1.1.3.3.4.4s.3.3.4.4c.1.1.3.3.4.4.1.1.3.3.4.4.1.1.3.3.4.4.1.1.3.3.4.4.1.1.3.3.4.4.1.1.3.3.4.4.1.1.3.3.4.4.1.1.3.3.4.4l.4.4c.1.1.3.3.4.4.1.1.3.3.4.4.1.1.3.3.4.4.1.1.3.3.4.4.1.1.3.3.4.4.1.1.3.3.4.4.1.1.3.3.4.4.1.1.3.3.4.4.1.1.3.3.4.4s.3.3.4.4c.1.1.3.3.4.4.1.1.3.3.4.4.1.1.3.3.4.4.1.1.3.3.4.4.1.1.3.3.4.4.1.1.3.3.4.4.1.1.3.3.4.4.1.1.3.3.4.4.1.1.3.3.4.4.1.1.3.3.4.4.1.1.3.3.4.4.1.1.3.3.4.4.1.1.3.3.4.4.1.1.3.3.4.4.1.1.3.3.4.4.1.1.3.3.4.4.1.1.3.3.4.4.1.1.3.3.4.4.1.1.3.3.4.4.1.1.3.3.4.4s.3.3.4.4c.1.1.3.3.4.4.1.1.3.3.4.4.1.1.3.3.4.4.1.1.3.3.4.4.1.1.3.3.4.4.1.1.3.3.4.4.1.1.3.3.4.4.1.1.3.3.4.4.1.1.3.3.4.4l.4.4c.1.1.3.3.4.4.1.1.3.3.4.4.1.1.3.3.4.4.1.1.3.3.4.4.1.1.3.3.4.4.1.1.3.3.4.4.1.1.3.3.4.4.1.1.3.3.4.4.1.1.3.3.4.4.1.1.3.3.4.4.1.1.3.3.4.4.1.1.3.3.4.4.1.1.3.3.4.4.1.1.3.3.4.4.1.1.3.3.4.4.1.1.3.3.4.4.1.1.3.3.4.4l.4.4c.1.1.3.3.4.4.1.1.3.3.4.4.1.1.3.3.4.4.1.1.3.3.4.4.1.1.3.3.4.4.1.1.3.3.4.4.1.1.3.3.4.4.1.1.3.3.4.4.1.1.3.3.4.4.1.1.3.3.4.4s.3.3.4.4c.1.1.3.3.4.4.1.1.3.3.4.4.1.1.3.3.4.4.1.1.3.3.4.4.1.1.3.3.4.4.1.1.3.3.4.4.1.1.3.3.4.4.1.1.3.3.4.4.1.1.3.3.4.4.1.1.3.3.4.4.1.1.3.3.4.4.1.1.3.3.4.4.1.1.3.3.4.4.1.1.3.3.4.4.1.1.3.3.4.4.1.1.3.3.4.4.1.1.3.3.4.4.1.1.3.3.4.4.1.1.3.3.4.4.1.1.3.3.4.4.1.1.3.3.4.4.1.1.3.3.4.4.1.1.3.3.4.4.1.1.3.3.4.4.1.1.3.3.4.4.1.1.3.3.4.4.1.1.3.3.4.4.1.1.3.3.4.4s.3.3.4.4c.1.1.3.3.4.4s.3.3.4.4c.1.1.3.3.4.4.1.1.3.3.4.4.1.1.3.3.4.4.1.1.3.3.4.4.1.1.3.3.4.4.1.1.3.3.4.4.1.1.3.3.4.4.1.1.3.3.4.4.1.1.3.3.4.4.1.1.3.3.4.4.1.1.3.3.4.4.1.1.3.3.4.4s.3.3.4.4c.1.1.3.3.4.4.1.1.3.3.4.4.1.1.3.3.4.4.1.1.3.3.4.4.1.1.3.3.4.4.1.1.3.3.4.4.1.1.3.3.4.4.1.1.3.3.4.4.1.1.3.3.4.4.1.1.3.3.4.4.1.1.3.3.4.4.1.1.3.3.4.4.1.1.3.3.4.4.1.1.3.3.4.4.1.1.3.3.4.4.1.1.3.3.4.4.1.1.3.3.4.4.1.1.3.3.4.4.1.1.3.3.4.4.1.1.3.3.4.4.1.1.3.3.4.4.1.1.3.3.4.4.1.1.3.3.4.4.1.1.3.3.4.4.1.1.3.3.4.4.1.1.3.3.4.4.1.1.3.3.4.4.1.1.3.3.4.4.1.1.3.3.4.4.1.1.3.3.4.4.1.1.3.3.4.4.1.1.3.3.4.4s.3.3.4.4c.1.1.3.3.4.4.1.1.3.3.4.4.1.1.3.3.4.4.1.1.3.3.4.4.1.1.3.3.4.4.1.1.3.3.4.4.1.1.3.3.4.4.1.1.3.3.4.4.1.1.3.3.4.4.1.1.3.3.4.4.1.1.3.3.4.4.1.1.3.3.4.4.1.1.3.3.4.4l.4.4c15.6,15.7,37.2,25.4,61,25.4s1.1,0,1.7,0c46.7-.9,84.3-39,84.3-86s-9.7-45.3-25.2-60.8Z"/>
        <g>
          <path class="st8" d="M155.7,98.9c.3.5.6,1,.9,1.5-.3-.5-.6-1-.9-1.5Z"/>
          <path class="st8" d="M159.8,107.4c.2.5.3,1,.5,1.5-.1-.5-.3-1-.5-1.5Z"/>
          <path class="st8" d="M157.8,102.7c.3.7.6,1.4.9,2.1-.3-.7-.6-1.4-.9-2.1Z"/>
          <path class="st8" d="M160.5,109.7c.1.5.2.9.4,1.4-.1-.5-.2-.9-.4-1.4Z"/>
          <path class="st8" d="M156.8,100.8c.3.6.7,1.2,1,1.9-.3-.6-.6-1.3-1-1.9Z"/>
          <path class="st8" d="M158.8,104.9c.3.6.5,1.2.7,1.9-.2-.6-.5-1.3-.7-1.9Z"/>
          <path class="st8" d="M161,111.9c.1.4.2.9.3,1.3,0-.5-.2-.9-.3-1.3Z"/>
          <path class="st8" d="M161.9,118.6c0,.8,0,1.5,0,2.3,0-.8,0-1.5,0-2.3Z"/>
          <path class="st8" d="M161.8,116.3c0,.5,0,1,.1,1.5,0-.5,0-1-.1-1.5Z"/>
          <path class="st8" d="M161.4,114.1c0,.5.1.9.2,1.4,0-.5-.1-.9-.2-1.4Z"/>
          <path class="st8" d="M151.6,93.4c.4.5.8.9,1.2,1.4-.4-.5-.8-1-1.2-1.4Z"/>
          <path class="st8" d="M154.5,97c.3.5.6.9.9,1.4-.3-.5-.6-.9-.9-1.4Z"/>
          <path class="st8" d="M153.1,95.2c.4.4.7.9,1,1.4-.3-.5-.7-.9-1-1.4Z"/>
          <path class="st5" d="M121.2,36c-.6,0-1.1,0-1.7,0-47.5,0-86,38.5-86,86s38.5,86,86,86,1.1,0,1.7,0c46.7-.9,84.3-39,84.3-86s-37.6-85.1-84.3-86ZM174.4,80.3l-9,9c-.3.3-.6.5-.9.8,6.1,8.7,9.7,19.3,9.7,30.8,0,29.4-23.6,53.4-52.9,53.9-.3,0-.6,0-.9,0-29.8,0-53.9-24.1-53.9-53.9s24.1-53.9,53.9-53.9.6,0,.9,0c10.7.2,20.6,3.5,28.9,9,.3-.4.6-.7.9-1.1l9-9c4-4,10.4-4,14.3,0,4,4,4,10.4,0,14.3Z"/>
          <path class="st10" d="M174.4,80.3c4-4,4-10.4,0-14.3-4-4-10.4-4-14.3,0l-9,9c-.3.3-.6.7-.9,1.1-8.3-5.5-18.2-8.8-28.9-9-.3,0-.6,0-.9,0-29.8,0-53.9,24.1-53.9,53.9s24.1,53.9,53.9,53.9.6,0,.9,0c29.3-.5,52.9-24.4,52.9-53.9s-3.6-22.1-9.7-30.8c.3-.2.6-.5.9-.8l9-9ZM121.2,162.7c-.3,0-.6,0-.9,0-.6,0-1.3,0-1.9,0-.2,0-.4,0-.6,0-.5,0-1,0-1.4-.1-.2,0-.3,0-.5,0-.6,0-1.2-.1-1.8-.2-.2,0-.4,0-.6,0-.4,0-.8-.1-1.2-.2-.2,0-.5,0-.7-.1-.4,0-.8-.2-1.1-.3-.4,0-.8-.2-1.1-.3-.3,0-.7-.2-1-.3-.3,0-.6-.2-.9-.3-.2,0-.5-.2-.7-.2-.3-.1-.7-.2-1-.4,0,0,0,0-.1,0-.8-.3-1.6-.6-2.4-1-.1,0-.2,0-.3-.1-.4-.2-.8-.4-1.2-.6,0,0-.1,0-.2,0-1.2-.6-2.4-1.3-3.6-2.1,0,0,0,0,0,0h0c-11.6-7.4-19.3-20.4-19.3-35.2,0-23.1,18.7-41.8,41.8-41.8s.6,0,.9,0c12,.3,22.8,5.6,30.3,14,0,0,.1.1.2.2.4.5.8.9,1.2,1.4,0,.1.2.2.3.4.4.4.7.9,1,1.4.1.1.2.3.3.4.3.5.6.9.9,1.4,0,.2.2.3.3.5.3.5.6,1,.9,1.5,0,.1.1.3.2.4.3.6.7,1.2,1,1.9,0,0,0,0,0,0,.3.7.6,1.4.9,2.1,0,0,0,.1,0,.2.3.6.5,1.2.7,1.9,0,.2.1.4.2.6.2.5.3,1,.5,1.5,0,.3.2.5.2.8.1.5.2.9.4,1.4,0,.3.1.6.2.8.1.4.2.9.3,1.3,0,.3.1.6.2.9,0,.5.1.9.2,1.4,0,.3,0,.6.1.9,0,.5,0,1,.1,1.5,0,.2,0,.5,0,.7,0,.8,0,1.5,0,2.3,0,22.7-18.2,41.2-40.8,41.7Z"/>
          <path class="st8" d="M103.1,159c.8.3,1.6.7,2.4,1-.8-.3-1.6-.6-2.4-1Z"/>
          <path class="st1" d="M103.1,159c.8.3,1.6.7,2.4,1-.8-.3-1.6-.6-2.4-1Z"/>
          <path class="st8" d="M101.6,158.3c.4.2.8.4,1.2.6-.4-.2-.8-.4-1.2-.6Z"/>
          <path class="st1" d="M101.6,158.3c.4.2.8.4,1.2.6-.4-.2-.8-.4-1.2-.6Z"/>
          <path class="st8" d="M115.8,162.4c.2,0,.3,0,.5,0-.2,0-.3,0-.5,0Z"/>
          <path class="st1" d="M115.8,162.4c.2,0,.3,0,.5,0-.2,0-.3,0-.5,0Z"/>
          <path class="st8" d="M109.2,161.2c.4.1.8.2,1.1.3-.4,0-.8-.2-1.1-.3Z"/>
          <path class="st1" d="M109.2,161.2c.4.1.8.2,1.1.3-.4,0-.8-.2-1.1-.3Z"/>
          <path class="st8" d="M106.6,160.4c-.3-.1-.7-.2-1-.4.3.1.7.2,1,.4Z"/>
          <path class="st1" d="M106.6,160.4c-.3-.1-.7-.2-1-.4.3.1.7.2,1,.4Z"/>
          <path class="st8" d="M108.2,160.9c-.3,0-.6-.2-.9-.3.3.1.6.2.9.3Z"/>
          <path class="st1" d="M108.2,160.9c-.3,0-.6-.2-.9-.3.3.1.6.2.9.3Z"/>
          <path class="st8" d="M112.2,161.9c-.2,0-.5,0-.7-.1.2,0,.5.1.7.1Z"/>
          <path class="st1" d="M112.2,161.9c-.2,0-.5,0-.7-.1.2,0,.5.1.7.1Z"/>
          <path class="st8" d="M114,162.2c-.2,0-.4,0-.6,0,.2,0,.4,0,.6,0Z"/>
          <path class="st1" d="M114,162.2c-.2,0-.4,0-.6,0,.2,0,.4,0,.6,0Z"/>
          <g>
            <path class="st6" d="M146.7,88.6c.8.6,1.5,1.3,2.2,2-.7-.7-1.4-1.3-2.2-2Z"/>
            <path class="st6" d="M146.6,88.5s0,0,0,0c0,0,0,0,.1,0,0,0,0,0-.1-.1Z"/>
            <path class="st6" d="M146.6,88.6c-7-5.7-15.8-9.1-25.4-9.4-.3,0-.6,0-.9,0-23.1,0-41.8,18.7-41.8,41.8s7.7,27.8,19.3,35.2c3.1.7,6.3,1,9.6,1,4.8,0,9.5-.8,13.9-2.2,18.4-5.9,31.7-23.1,31.7-43.4s-2.3-16.3-6.3-23Z"/>
            <path class="st6" d="M149.3,91c.7.7,1.4,1.4,2.1,2.2-.7-.8-1.4-1.5-2.1-2.2Z"/>
            <path class="st6" d="M148.9,90.6c.1.1.3.3.4.4-.1-.1-.3-.3-.4-.4Z"/>
          </g>
          <path class="st8" d="M118.3,162.6c-.2,0-.4,0-.6,0,.2,0,.4,0,.6,0Z"/>
          <path class="st1" d="M118.3,162.6c-.2,0-.4,0-.6,0,.2,0,.4,0,.6,0Z"/>
          <path class="st9" d="M99.4,157.1c-.5-.3-1.1-.6-1.6-.9.5.3,1,.6,1.6.9Z"/>
          <path class="st1" d="M99.4,157.1c-.5-.3-1.1-.6-1.6-.9.5.3,1,.6,1.6.9Z"/>
          <path class="st3" d="M161.9,118.6c0-.3,0-.5,0-.7,0-.5,0-1-.1-1.5,0-.3,0-.6-.1-.9,0-.5-.1-.9-.2-1.4,0-.3-.1-.6-.2-.9,0-.5-.2-.9-.3-1.3,0-.3-.1-.6-.2-.8-.1-.5-.2-.9-.4-1.4,0-.3-.1-.5-.2-.8-.1-.5-.3-1-.5-1.5,0-.2-.1-.4-.2-.6-.2-.6-.5-1.3-.7-1.9,0,0,0-.1,0-.2-.3-.7-.6-1.4-.9-2.1,0,0,0,0,0,0-.3-.6-.6-1.3-1-1.9,0-.1-.1-.3-.2-.4-.3-.5-.6-1-.9-1.5,0-.1-.2-.3-.3-.5-.3-.5-.6-.9-.9-1.4-.1-.1-.2-.3-.3-.4-.3-.5-.7-.9-1-1.4,0-.1-.2-.2-.3-.4-.4-.5-.8-1-1.2-1.4,0,0-.1-.1-.2-.2-1.5-1.7-3.1-3.2-4.9-4.6,4,6.8,6.3,14.6,6.3,23,0,20.3-13.3,37.5-31.7,43.4-4.4,1.4-9,2.2-13.9,2.2s-6.5-.4-9.6-1h0s0,0,0,0c0,0,0,0,0,0,.5.3,1,.6,1.6,1,.1,0,.2.1.3.2.5.3,1.1.6,1.6.9-.5-.3-1.1-.6-1.6-.9.5.3,1.1.6,1.7.9,0,0,.1,0,.2,0,.4.2.8.4,1.2.6.1,0,.2,0,.3.1.8.3,1.6.7,2.4,1,0,0,0,0,.1,0,.3.1.7.2,1,.4.2,0,.5.2.7.2.3.1.6.2.9.3.3.1.7.2,1,.3.4.1.8.2,1.1.3.4,0,.8.2,1.1.3.2,0,.5.1.7.1.4,0,.8.2,1.2.2.2,0,.4,0,.6,0,.6,0,1.2.2,1.8.2.2,0,.3,0,.5,0,.5,0,1,0,1.4.1.2,0,.4,0,.6,0,.6,0,1.3,0,1.9,0s.6,0,.9,0c22.6-.5,40.8-19,40.8-41.7s0-1.5,0-2.3Z"/>
          <path class="st8" d="M101.4,158.2c-.6-.3-1.1-.6-1.6-.9-.1,0-.2-.1-.3-.2-.5-.3-1.1-.6-1.6-1,0,0,0,0,0,0,1.2.7,2.4,1.4,3.6,2.1-.6-.3-1.1-.6-1.7-.9.5.3,1.1.6,1.6.9ZM97.9,156.2c.5.3,1,.6,1.6.9-.5-.3-1.1-.6-1.6-.9Z"/>
          <path class="st1" d="M101.4,158.2c-.6-.3-1.1-.6-1.6-.9-.1,0-.2-.1-.3-.2-.5-.3-1.1-.6-1.6-1,0,0,0,0,0,0,1.2.7,2.4,1.4,3.6,2.1-.6-.3-1.1-.6-1.7-.9.5.3,1.1.6,1.6.9ZM97.9,156.2c.5.3,1,.6,1.6.9-.5-.3-1.1-.6-1.6-.9Z"/>
          <path class="st2" d="M97.8,114.8c0,4.9-4,8.9-8.9,8.9s-8.9-4-8.9-8.9,4-8.9,8.9-8.9,8.9,4,8.9,8.9Z"/>
          <path class="st2" d="M97.8,123.7c0,2.7-2.2,4.9-4.9,4.9s-4.9-2.2-4.9-4.9,2.2-4.9,4.9-4.9,4.9,2.2,4.9,4.9Z"/>
        </g>
      </g>
    </g>
  </g>
</svg>