<?xml version="1.0" encoding="UTF-8"?>
<svg xmlns="http://www.w3.org/2000/svg" xmlns:xlink="http://www.w3.org/1999/xlink" version="1.1" viewBox="0 0 240 240">
  <!-- Generator: Adobe Illustrator 29.2.1, SVG Export Plug-In . SVG Version: 2.1.0 Build 116)  -->
  <defs>
    <style>
      .st0 {
        fill: none;
      }

      .st1, .st2 {
        fill: #95caad;
      }

      .st2 {
        mix-blend-mode: multiply;
      }

      .st3 {
        fill: #223c4b;
      }

      .st4 {
        isolation: isolate;
      }

      .st5 {
        fill: #f9f2d9;
      }

      .st6 {
        fill: #dd5b3e;
      }

      .st7 {
        clip-path: url(#clippath);
      }
    </style>
    <clipPath id="clippath">
      <rect class="st0" width="240" height="240"/>
    </clipPath>
  </defs>
  <g class="st4">
    <g id="Layer_1">
      <rect class="st1" width="240" height="240"/>
      <g class="st7">
        <path class="st2" d="M373.8,253.3h0s-7.1-12.8-7.1-12.8c-.2-.2-.4-.3-.6-.5h0c-.2-.3-.4-.4-.6-.6h0c-.2-.3-.4-.4-.6-.6h0c-.2-.3-.4-.4-.6-.6h0c-.2-.3-.4-.4-.6-.6h0c-.2-.3-.4-.4-.6-.6h0c-.2-.3-.4-.4-.6-.6h0c-.2-.3-.4-.4-.6-.6h0c-.2-.3-.4-.4-.6-.6h0c-.2-.3-.4-.4-.6-.6h0c-.2-.3-.4-.4-.6-.6h0c-.2-.3-.4-.4-.6-.6h0c-.2-.3-.4-.4-.6-.6h0c-.2-.3-.4-.4-.6-.6h0c-.2-.3-.4-.4-.6-.6h0c-.2-.3-.4-.4-.6-.6h0c-.2-.3-.4-.4-.6-.6h0c-.2-.3-.4-.4-.6-.6h0c-.2-.3-.4-.4-.6-.6h0c-.2-.3-.4-.4-.6-.6h0c-.2-.3-.4-.4-.6-.6h0c-.2-.3-.4-.4-.6-.6h0c-.2-.3-.4-.4-.6-.6h0c-.2-.3-.4-.4-.6-.6h0c-.2-.3-.4-.4-.6-.6h0c-.2-.3-.4-.4-.6-.6h0c-.2-.3-.4-.4-.6-.6h0c-.2-.3-.4-.4-.6-.6h0c-.2-.3-.4-.4-.6-.6h0c-.2-.3-.4-.4-.6-.6h0c-.2-.3-.4-.4-.6-.6h0c-.2-.3-.4-.4-.6-.6h0c-.2-.3-.4-.4-.6-.6h0c-.2-.3-.4-.4-.6-.6h0c-.2-.3-.4-.4-.6-.6h0c-.2-.3-.4-.4-.6-.6h0c-.2-.3-.4-.4-.6-.6h0c-.2-.3-.4-.4-.6-.6h0c-.2-.3-.4-.4-.6-.6h0c-.2-.3-.4-.4-.6-.6h0c-.2-.3-.4-.4-.6-.6h0c-.2-.3-.4-.4-.6-.6h0c-.2-.3-.4-.4-.6-.6h0c-.2-.3-.4-.4-.6-.6h0c-.2-.3-.4-.4-.6-.6h0c-.2-.3-.4-.4-.6-.6h0c-.2-.3-.4-.4-.6-.6h0c-.2-.3-.4-.4-.6-.6h0c-.2-.3-.4-.4-.6-.6h0c-.2-.3-.4-.4-.6-.6h0c-.2-.3-.4-.4-.6-.6h0c-.2-.3-.4-.4-.6-.6h0c-.2-.3-.4-.4-.6-.6h0c-.2-.3-.4-.4-.6-.6h0c-.2-.3-.4-.4-.6-.6h0c-.2-.3-.4-.4-.6-.6h0c-.2-.3-.4-.4-.6-.6h0c-.2-.3-.4-.4-.6-.6h0c-.2-.3-.4-.4-.6-.6h0c-.2-.3-.4-.4-.6-.6h0c-.2-.3-.4-.4-.6-.6h0c-.2-.3-.4-.4-.6-.6h0c-.2-.3-.4-.4-.6-.6h0c-.2-.3-.4-.4-.6-.6h0c-.2-.3-.4-.4-.6-.6h0c-.2-.3-.4-.4-.6-.6h0c-.2-.3-.4-.4-.6-.6h0c-.2-.3-.4-.4-.6-.6h0c-.2-.3-.4-.4-.6-.6h0c-.2-.3-.4-.4-.6-.6h0c-.2-.3-.4-.4-.6-.6h0c-.2-.3-.4-.4-.6-.6h0c-.2-.3-.4-.4-.6-.6h0c-.2-.3-.4-.4-.6-.6h0c-.2-.3-.4-.4-.6-.6h0c-.2-.3-.4-.4-.6-.6h0c-.2-.3-.4-.4-.6-.6h0c-.2-.3-.4-.4-.6-.6h0c-.2-.3-.4-.4-.6-.6h0c-.2-.3-.4-.4-.6-.6h0c-.2-.3-.4-.4-.6-.6h0c-.2-.3-.4-.4-.6-.6h0c-.2-.3-.4-.4-.6-.6h0c-.2-.3-.4-.4-.6-.6h0c-.2-.3-.4-.4-.6-.6h0c-.2-.3-.4-.4-.6-.6h0c-.2-.3-.4-.4-.6-.6h0c-.2-.3-.4-.4-.6-.6h0c-.2-.3-.4-.4-.6-.6h0c-.2-.3-.4-.4-.6-.6h0c-.2-.3-.4-.4-.6-.6h0c-.2-.3-.4-.4-.6-.6h0c-.2-.3-.4-.4-.6-.6h0c-.2-.3-.4-.4-.6-.6h0c-.2-.3-.4-.4-.6-.6h0c-.2-.3-.4-.4-.6-.6h0c-.2-.3-.4-.4-.6-.6h0c-.2-.3-.4-.4-.6-.6h0c-.2-.3-.4-.4-.6-.6h0c-.2-.3-.4-.4-.6-.6h0c-.2-.3-.4-.4-.6-.6h0c-.2-.3-.4-.4-.6-.6h0c-.2-.3-.4-.4-.6-.6h0c-.2-.3-.4-.4-.6-.6h0c-.2-.3-.4-.4-.6-.6h0c-.2-.3-.4-.4-.6-.6h0c-.2-.3-.4-.4-.6-.6h0c-.2-.3-.4-.4-.6-.6h0c-.2-.3-.4-.4-.6-.6h0c-.2-.3-.4-.4-.6-.6h0c-.2-.3-.4-.4-.6-.6h0c-.2-.3-.4-.4-.6-.6h0c-.2-.3-.4-.4-.6-.6h0c-.2-.3-.4-.4-.6-.6h0c-.2-.3-.4-.4-.6-.6h0c-.2-.3-.4-.4-.6-.6h0c-.2-.3-.4-.4-.6-.6h0c-.2-.3-.4-.4-.6-.6h0c-.2-.3-.4-.4-.6-.6h0c-.2-.3-.4-.4-.6-.6h0c-.2-.3-.4-.4-.6-.6h0c-.2-.3-.4-.4-.6-.6h0c-.2-.3-.4-.4-.6-.6h0c-.2-.3-.4-.4-.6-.6h0c-.2-.3-.4-.4-.6-.6h0c-.2-.3-.4-.4-.6-.6h0c-.2-.3-.4-.4-.6-.6h0c-.2-.3-.4-.4-.6-.6h0c-.2-.3-.4-.4-.6-.6h0c-.2-.3-.4-.4-.6-.6h0c-.2-.3-.4-.4-.6-.6h0c-.2-.3-.4-.4-.6-.6h0c-.2-.3-.4-.4-.6-.6h0c-.2-.3-.4-.4-.6-.6h0c-.2-.3-.4-.4-.6-.6h0c-.2-.3-.4-.4-.6-.6h0c-.2-.3-.4-.4-.6-.6h0c-.2-.3-.4-.4-.6-.6h0c-.2-.3-.4-.4-.6-.6h0c-.2-.3-.4-.4-.6-.6h0c-.2-.3-.4-.4-.6-.6h0c-.2-.3-.4-.4-.6-.6h0c-.2-.3-.4-.4-.6-.6h0c-.2-.3-.4-.4-.6-.6h0c-.2-.3-.4-.4-.6-.6h0c-.2-.3-.4-.4-.6-.6h0c-.2-.3-.4-.4-.6-.6h0c-.2-.3-.4-.4-.6-.6h0c-.2-.3-.4-.4-.6-.6h0c-.2-.3-.4-.4-.6-.6h0c-.2-.3-.4-.4-.6-.6h0c-.2-.3-.4-.4-.6-.6h0c-.2-.3-.4-.4-.6-.6h0c-.2-.3-.4-.4-.6-.6h0c-.2-.3-.4-.4-.6-.6h0c-.2-.3-.4-.4-.6-.6h0c-.2-.3-.4-.4-.6-.6h0c-.2-.3-.4-.4-.6-.6h0c-.2-.3-.4-.4-.6-.6h0c-.2-.3-.4-.4-.6-.6h0c-.2-.3-.4-.4-.6-.6h0c-.2-.3-.4-.4-.6-.6h0c-.2-.3-.4-.4-.6-.6h0c-.2-.3-.4-.4-.6-.6h0c-.2-.3-.4-.4-.6-.6h0c-.2-.3-.4-.4-.6-.6h0c-.2-.3-.4-.4-.6-.6h0c-.2-.3-.4-.4-.6-.6h0c-.2-.3-.4-.4-.6-.6h0c-.2-.3-.4-.4-.6-.6h0c-.2-.3-.4-.4-.6-.6h0c-.2-.3-.4-.4-.6-.6h0c-.2-.3-.4-.4-.6-.6h0c-.2-.3-.4-.4-.6-.6h0c-.2-.3-.4-.4-.6-.6h0c-.2-.3-.4-.4-.6-.6h0c-.2-.3-.4-.4-.6-.6h0c-.2-.3-.4-.4-.6-.6h0c-.2-.3-.4-.4-.6-.6h0c-.2-.3-.4-.4-.6-.6h0c-.2-.3-.4-.4-.6-.6h0c-.2-.3-.4-.4-.6-.6h0c-.2-.3-.4-.4-.6-.6h0c-.2-.3-.4-.4-.6-.6h0c-.2-.3-.4-.4-.6-.6h0c-.2-.3-.4-.4-.6-.6h0c-.2-.3-.4-.4-.6-.6h0c-.2-.3-.4-.4-.6-.6h0c-.2-.3-.4-.4-.6-.6h0c-.2-.3-.4-.4-.6-.6h0c-.2-.3-.4-.4-.6-.6h0c-.2-.3-.4-.4-.6-.6h0c-.2-.3-.4-.4-.6-.6h0c-.2-.3-.4-.4-.6-.6h0c-.2-.3-.4-.4-.6-.6h0c-.2-.3-.4-.4-.6-.6h0c-.2-.3-.4-.4-.6-.6h0c-.2-.3-.4-.4-.6-.6h0c-.2-.3-.4-.4-.6-.6h0c-.2-.3-.4-.4-.6-.6h0c-.2-.3-.4-.4-.6-.6h0c-.2-.3-.4-.4-.6-.6h0c-.2-.3-.4-.4-.6-.6h0c-.2-.3-.4-.4-.6-.6h0c-.2-.3-.4-.4-.6-.6h0c-.2-.3-.4-.4-.6-.6h0c-.2-.3-.4-.4-.6-.6h0c-.2-.3-.4-.4-.6-.6h0c-.2-.3-.4-.4-.6-.6h0c-.2-.3-.4-.4-.6-.6h0c-.2-.3-.4-.4-.6-.6h0c-.2-.3-.4-.4-.6-.6h0c-.2-.3-.4-.4-.6-.6h0c-.2-.3-.4-.4-.6-.6h0c-.2-.3-.4-.4-.6-.6h0c-.2-.3-.4-.4-.6-.6h0c-.2-.3-.4-.4-.6-.6h0c-.2-.3-.4-.4-.6-.6h0c-.2-.3-.4-.4-.6-.6h0c-.2-.3-.4-.4-.6-.6h0c-.2-.3-.4-.4-.6-.6h0c-.2-.3-.4-.4-.6-.6h0c-.2-.3-.4-.4-.6-.6h0c-.2-.3-.4-.4-.6-.6h0c-.2-.3-.4-.4-.6-.6h0c-.2-.3-.4-.4-.6-.6h0c-.2-.3-.4-.4-.6-.6h0c-.2-.3-.4-.4-.6-.6h0c-.2-.3-.4-.4-.6-.6h0c-.2-.3-.4-.4-.6-.6h0c-.2-.3-.4-.4-.6-.6h0c-.2-.3-.4-.4-.6-.6h0c-.2-.3-.4-.4-.6-.6h0c-.2-.3-.4-.4-.6-.6h0c-.2-.3-.4-.4-.6-.6h0c-.2-.3-.4-.4-.6-.6h0c-.2-.3-.4-.4-.6-.6h0c-.2-.3-.4-.4-.6-.6h0c-.2-.3-.4-.4-.6-.6h0c-.2-.3-.4-.4-.6-.6h0c-.2-.3-.4-.4-.6-.6h0c-.2-.3-.4-.4-.6-.6h0c-.2-.3-.4-.4-.6-.6h0c-.2-.3-.4-.4-.6-.6h0c-.2-.3-.4-.4-.6-.6h0c-.2-.3-.4-.4-.6-.6h0c-.2-.3-.4-.4-.6-.6h0c-.2-.3-.4-.4-.6-.6h0c-.2-.3-.4-.4-.6-.6h0c-.2-.3-.4-.4-.6-.6h0c-.2-.3-.4-.4-.6-.6h0c-.2-.3-.4-.4-.6-.6h0c-.2-.3-.4-.4-.6-.6h0c-.2-.3-.4-.4-.6-.6h0c-.2-.3-.4-.4-.6-.6h0c-.2-.3-.4-.4-.6-.6h0c-.2-.3-.4-.4-.6-.6h0c-.2-.3-.4-.4-.6-.6h0c-.2-.3-.4-.4-.6-.6h0c-.2-.3-.4-.4-.6-.6h0c-.2-.3-.4-.4-.6-.6h0c-.2-.3-.4-.4-.6-.6h0c-.2-.3-.4-.4-.6-.6h0c-.2-.3-.4-.4-.6-.6h0c-.2-.3-.4-.4-.6-.6h0c-.2-.3-.4-.4-.6-.6h0c-.2-.3-.4-.4-.6-.6h0c-.2-.3-.4-.4-.6-.6h0c-.2-.3-.4-.4-.6-.6h0c-.2-.3-.4-.4-.6-.6h0c-.2-.3-.4-.4-.6-.6h0c-.2-.3-.4-.4-.6-.6h0c-.2-.3-.4-.4-.6-.6h0c-.2-.3-.4-.4-.6-.6h0c-.2-.3-.4-.4-.6-.6h0c-.2-.3-.4-.4-.6-.6h0c-.2-.3-.4-.4-.6-.6h0c-.2-.3-.4-.4-.6-.6h0c-.2-.3-.4-.4-.6-.6h0c-.2-.3-.4-.4-.6-.6h0c-.2-.3-.4-.4-.6-.6h0c-.2-.3-.4-.4-.6-.6h0c-.2-.3-.4-.4-.6-.6h0c-.2-.3-.4-.4-.6-.6h0c-.2-.3-.4-.4-.6-.6h0c-.2-.3-.4-.4-.6-.6h0c-.2-.3-.4-.4-.6-.6h0c-.2-.3-.4-.4-.6-.6h0c-.2-.3-.4-.4-.6-.6h0c-.2-.3-.4-.4-.6-.6h0c-.2-.3-.4-.4-.6-.6h0c-.2-.3-.4-.4-.6-.6h0c-.2-.3-.4-.4-.6-.6h0c-.2-.3-.4-.4-.6-.6h0c-.2-.3-.4-.4-.6-.6h0c-.2-.3-.4-.4-.6-.6h0c-.2-.3-.4-.4-.6-.6h0c-.2-.3-.4-.4-.6-.6h0c-.2-.3-.4-.4-.6-.6h0c-.2-.3-.4-.4-.6-.6h0c-.2-.3-.4-.4-.6-.6h0c-12.8-12.4-29.1-20.6-47.3-24-18.1-3.4-36.4-1.6-52.7,5.2l-9.7,8.4h0c-16.5,10.2-28.5,26-32.1,45.2-2.1,11-1.2,21.9,2.1,32.2-.2.4-.4.7-.5,1.1-1.9,4.7-.6,9.8,2.9,13,.2.2.4.4.6.6.2.2.4.4.6.6,0,0,0,0,0,0-.1,1.8-.1,3.6,0,5.5.7,9.4,4.9,17.8,11.2,23.8.2.2.4.4.6.6.2.2.4.4.6.6.2.2.4.4.6.6.2.2.4.4.6.6.2.2.4.4.6.6.2.2.4.4.6.6.2.2.4.4.6.6.2.2.4.4.6.6.2.2.4.4.6.6.2.2.4.4.6.6.2.2.4.4.6.6.2.2.4.4.6.6.2.2.4.4.6.6.2.2.4.4.6.6.2.2.4.4.6.6.2.2.4.4.6.6.2.2.4.4.6.6.2.2.4.4.6.6.2.2.4.4.6.6.2.2.4.4.6.6.2.2.4.4.6.6.2.2.4.4.6.6.2.2.4.4.6.6.2.2.4.4.6.6.2.2.4.4.6.6.2.2.4.4.6.6.2.2.4.4.6.6.2.2.4.4.6.6.2.2.4.4.6.6.2.2.4.4.6.6.2.2.4.4.6.6.2.2.4.4.6.6.2.2.4.4.6.6.2.2.4.4.6.6.2.2.4.4.6.6.2.2.4.4.6.6.2.2.4.4.6.6.2.2.4.4.6.6.2.2.4.4.6.6.2.2.4.4.6.6.2.2.4.4.6.6.2.2.4.4.6.6.2.2.4.4.6.6.2.2.4.4.6.6.2.2.4.4.6.6.2.2.4.4.6.6.2.2.4.4.6.6.2.2.4.4.6.6.2.2.4.4.6.6.2.2.4.4.6.6.2.2.4.4.6.6.2.2.4.4.6.6.2.2.4.4.6.6.2.2.4.4.6.6.2.2.4.4.6.6.2.2.4.4.6.6.2.2.4.4.6.6.2.2.4.4.6.6.2.2.4.4.6.6.2.2.4.4.6.6.2.2.4.4.6.6.2.2.4.4.6.6.2.2.4.4.6.6.2.2.4.4.6.6.2.2.4.4.6.6.2.2.4.4.6.6.2.2.4.4.6.6.2.2.4.4.6.6.2.2.4.4.6.6.2.2.4.4.6.6.2.2.4.4.6.6.2.2.4.4.6.6.2.2.4.4.6.6.2.2.4.4.6.6.2.2.4.4.6.6.2.2.4.4.6.6.2.2.4.4.6.6.2.2.4.4.6.6.2.2.4.4.6.6.2.2.4.4.6.6.2.2.4.4.6.6.2.2.4.4.6.6.2.2.4.4.6.6.2.2.4.4.6.6.2.2.4.4.6.6.2.2.4.4.6.6.2.2.4.4.6.6.2.2.4.4.6.6.2.2.4.4.6.6.2.2.4.4.6.6.2.2.4.4.6.6.2.2.4.4.6.6.2.2.4.4.6.6.2.2.4.4.6.6.2.2.4.4.6.6.2.2.4.4.6.6.2.2.4.4.6.6.2.2.4.4.6.6.2.2.4.4.6.6.2.2.4.4.6.6.2.2.4.4.6.6.2.2.4.4.6.6.2.2.4.4.6.6.2.2.4.4.6.6.2.2.4.4.6.6.2.2.4.4.6.6.2.2.4.4.6.6.2.2.4.4.6.6.2.2.4.4.6.6.2.2.4.4.6.6.2.2.4.4.6.6.2.2.4.4.6.6.2.2.4.4.6.6.2.2.4.4.6.6.2.2.4.4.6.6.2.2.4.4.6.6.2.2.4.4.6.6.2.2.4.4.6.6.2.2.4.4.6.6.2.2.4.4.6.6.2.2.4.4.6.6.2.2.4.4.6.6.2.2.4.4.6.6.2.2.4.4.6.6.2.2.4.4.6.6.2.2.4.4.6.6.2.2.4.4.6.6.2.2.4.4.6.6.2.2.4.4.6.6.2.2.4.4.6.6.2.2.4.4.6.6.2.2.4.4.6.6.2.2.4.4.6.6.2.2.4.4.6.6.2.2.4.4.6.6.2.2.4.4.6.6.2.2.4.4.6.6.2.2.4.4.6.6.2.2.4.4.6.6.2.2.4.4.6.6.2.2.4.4.6.6.2.2.4.4.6.6.2.2.4.4.6.6.2.2.4.4.6.6.2.2.4.4.6.6.2.2.4.4.6.6.2.2.4.4.6.6.2.2.4.4.6.6.2.2.4.4.6.6.2.2.4.4.6.6.2.2.4.4.6.6.2.2.4.4.6.6.2.2.4.4.6.6.2.2.4.4.6.6.2.2.4.4.6.6.2.2.4.4.6.6.2.2.4.4.6.6.2.2.4.4.6.6.2.2.4.4.6.6.2.2.4.4.6.6.2.2.4.4.6.6.2.2.4.4.6.6.2.2.4.4.6.6.2.2.4.4.6.6.2.2.4.4.6.6.2.2.4.4.6.6.2.2.4.4.6.6.2.2.4.4.6.6.2.2.4.4.6.6.2.2.4.4.6.6.2.2.4.4.6.6.2.2.4.4.6.6.2.2.4.4.6.6.2.2.4.4.6.6.2.2.4.4.6.6.2.2.4.4.6.6.2.2.4.4.6.6.2.2.4.4.6.6.2.2.4.4.6.6.2.2.4.4.6.6.2.2.4.4.6.6.2.2.4.4.6.6.2.2.4.4.6.6.2.2.4.4.6.6.2.2.4.4.6.6.2.2.4.4.6.6.2.2.4.4.6.6.2.2.4.4.6.6.2.2.4.4.6.6.2.2.4.4.6.6.2.2.4.4.6.6.2.2.4.4.6.6.2.2.4.4.6.6.2.2.4.4.6.6.2.2.4.4.6.6.2.2.4.4.6.6.2.2.4.4.6.6.2.2.4.4.6.6.2.2.4.4.6.6.2.2.4.4.6.6.2.2.4.4.6.6.2.2.4.4.6.6.2.2.4.4.6.6.2.2.4.4.6.6.2.2.4.4.6.6.2.2.4.4.6.6.2.2.4.4.6.6.2.2.4.4.6.6.2.2.4.4.6.6.2.2.4.4.6.6.2.2.4.4.6.6.2.2.4.4.6.6.2.2.4.4.6.6.2.2.4.4.6.6.2.2.4.4.6.6.2.2.4.4.6.6.2.2.4.4.6.6.2.2.4.4.6.6.2.2.4.4.6.6.2.2.4.4.6.6.2.2.4.4.6.6.2.2.4.4.6.6.2.2.4.4.6.6.2.2.4.4.6.6.2.2.4.4.6.6.2.2.4.4.6.6.2.2.4.4.6.6.2.2.4.4.6.6.2.2.4.4.6.6.2.2.4.4.6.6.2.2.4.4.6.6.2.2.4.4.6.6.2.2.4.4.6.6.2.2.4.4.6.6.2.2.4.4.6.6.2.2.4.4.6.6.2.2.4.4.6.6.2.2.4.4.6.6.2.2.4.4.6.6.2.2.4.4.6.6.2.2.4.4.6.6.2.2.4.4.6.6.2.2.4.4.6.6.2.2.4.4.6.6.2.2.4.4.6.6.2.2.4.4.6.6.2.2.4.4.6.6.2.2.4.4.6.6.2.2.4.4.6.6.2.2.4.4.6.6.2.2.4.4.6.6.2.2.4.4.6.6.2.2.4.4.6.6.2.2.4.4.6.6.2.2.4.4.6.6.2.2.4.4.6.6.2.2.4.4.6.6.2.2.4.4.6.6.2.2.4.4.6.6.2.2.4.4.6.6.2.2.4.4.6.6.2.2.4.4.6.6.2.2.4.4.6.6.2.2.4.4.6.6.2.2.4.4.6.6.2.2.4.4.6.6.2.2.4.4.6.6.2.2.4.4.6.6.2.2.4.4.6.6.2.2.4.4.6.6.2.2.4.4.6.6.2.2.4.4.6.6.2.2.4.4.6.6.2.2.4.4.6.6.2.2.4.4.6.6.2.2.4.4.6.6.2.2.4.4.6.6.2.2.4.4.6.6.2.2.4.4.6.6.2.2.4.4.6.6.2.2.4.4.6.6.2.2.4.4.6.6.2.2.4.4.6.6.2.2.4.4.6.6.2.2.4.4.6.6.2.2.4.4.6.6.2.2.4.4.6.6.2.2.4.4.6.6.2.2.4.4.6.6.2.2.4.4.6.6.2.2.4.4.6.6.2.2.4.4.6.6.2.2.4.4.6.6.2.2.4.4.6.6.2.2.4.4.6.6.2.2.4.4.6.6.2.2.4.4.6.6.2.2.4.4.6.6.2.2.4.4.6.6.2.2.4.4.6.6,5.1,5.1,11.6,8.7,18.9,10.2.2.2.4.4.6.5.2.2.4.4.6.6.2.2.4.4.6.6.2.2.4.4.6.6.2.2.4.4.6.6.6.8,1.6,1.3,2.7,1.2l2.5-.2c1.3,0,2.3-1,2.6-2.1h.2c1.6-.1,2.9-1.4,2.8-2.9l-2.1-27.3c0,0,.2.1.3.2.2.2.4.4.6.6.2.2.4.4.6.6.2.2.4.4.6.6.2.2.4.4.6.6.2.2.4.4.6.6.2.2.4.4.6.6.2.2.4.4.6.6.2.2.4.4.6.6.2.2.4.4.6.6.2.2.4.4.6.6.2.2.4.4.6.6.2.2.4.4.6.6.2.2.4.4.6.6.2.2.4.4.6.6.2.2.4.4.6.6.2.2.4.4.6.6.2.2.4.4.6.6.2.2.4.4.6.6.2.2.4.4.6.6.2.2.4.4.6.6.2.2.4.4.6.6.2.2.4.4.6.6.2.2.4.4.6.6.2.2.4.4.6.6.2.2.4.4.6.6.2.2.4.4.6.6.2.2.4.4.6.6.2.2.4.4.6.6.2.2.4.4.6.6.2.2.4.4.6.6.2.2.4.4.6.6.2.2.4.4.6.6.2.2.4.4.6.6.2.2.4.4.6.6.2.2.4.4.6.6.2.2.4.4.6.6.2.2.4.4.6.6.2.2.4.4.6.6.2.2.4.4.6.6.2.2.4.4.6.6.2.2.4.4.6.6.2.2.4.4.6.6.2.2.4.4.6.6.2.2.4.4.6.6.2.2.4.4.6.6.2.2.4.4.6.6.2.2.4.4.6.6.2.2.4.4.6.6.2.2.4.4.6.6.2.2.4.4.6.6.2.2.4.4.6.6.2.2.4.4.6.6.2.2.4.4.6.6.2.2.4.4.6.6.2.2.4.4.6.6.2.2.4.4.6.6.2.2.4.4.6.6.2.2.4.4.6.6.2.2.4.4.6.6.2.2.4.4.6.6.2.2.4.4.6.6.2.2.4.4.6.6.2.2.4.4.6.6.2.2.4.4.6.6.3.4.7.7,1.1.9l2.2,1.1c1.5.7,3.2.1,3.9-1.3l.5-1.1c16.6,4,34.4-3.9,42-19.9.8-1.8,1.5-3.5,2.1-5.3,5.2-1.3,9.1-6,8.9-11.6,0-.4,0-.8,0-1.2,6.8-8.4,11.6-18.2,13.7-29.2,3.5-18.6-1.5-37.1-12.4-52.3Z"/>
        <g>
          <g>
            <path class="st3" d="M180.9,54.7c-12.8-12.3-29.1-20.5-47.3-23.9-18.1-3.4-36.4-1.6-52.7,5.2l-9.7,8.4,21.6.8.9-.3c11.9-3.6,24.9-4.2,37.6-1.8,12.7,2.4,24.6,7.7,34.4,15.3l.7.6,21.5,8.5-7.1-12.8Z"/>
            <path class="st3" d="M52.8,133.8c-7.7-13-10.8-28-8-43.2,6.8-36.5,45.9-59.8,87.3-52,41.4,7.8,69.4,43.6,62.5,80.1-2.9,15.3-11.4,28.3-23.4,37.6.4,2.1.6,4.2.6,6.3,14.6-10.2,25.2-25.1,28.5-42.9,7.4-39.2-22.7-77.8-67.3-86.2-44.5-8.4-86.6,16.7-93.9,55.9-3.3,17.7,1,35.2,10.7,49.9.8-2,1.8-3.9,2.9-5.7Z"/>
          </g>
          <g>
            <g>
              <path class="st3" d="M88.2,175.1c.1,1.5-1.1,2.8-2.8,2.9l-2.5.2c-1.6.1-3.1-1-3.2-2.5l-5.4-71.1c-.1-1.5,1.1-2.8,2.8-2.9l2.5-.2c1.6-.1,3.1,1,3.2,2.5l5.4,71.1Z"/>
              <path class="st5" d="M73.8,103.7c-17.7,3.9-30.3,20.3-28.9,38.9,1.4,18.6,16.4,32.9,34.5,34.1l-5.6-73Z"/>
              <path class="st6" d="M85.3,177c.1,1.6-1.1,2.9-2.8,3l-2.5.2c-1.6.1-3.1-1-3.2-2.6l-5.7-74.6c-.1-1.6,1.1-2.9,2.8-3l2.5-.2c1.6-.1,3.1,1,3.2,2.6l5.7,74.6Z"/>
            </g>
            <g>
              <path class="st3" d="M123.6,181.7c-.6,1.3,0,3,1.5,3.7l2.2,1.1c1.5.7,3.2.2,3.8-1.1l30.8-64.3c.6-1.3,0-3-1.5-3.7l-2.2-1.1c-1.5-.7-3.2-.2-3.8,1.1l-30.8,64.3Z"/>
              <path class="st5" d="M162.9,120.4c15.1,10.1,20.9,29.9,12.8,46.8-8.1,16.8-27.2,24.8-44.5,19.3l31.7-66Z"/>
              <path class="st6" d="M125.5,184.6c-.7,1.4,0,3.1,1.5,3.8l2.2,1.1c1.5.7,3.2.1,3.9-1.3l32.3-67.4c.7-1.4,0-3.1-1.5-3.8l-2.2-1.1c-1.5-.7-3.2-.1-3.9,1.3l-32.3,67.4Z"/>
            </g>
          </g>
          <path class="st3" d="M186.7,150.2c-.1-5.6-4.2-10.2-9.4-11.3,2.5,7.2,2.8,15.2.5,22.9,5.2-1.3,9.1-6,8.9-11.6Z"/>
          <path class="st3" d="M40.7,122.8c2.1-5.2,7.6-8,12.9-7.1-5,5.8-8.1,13.1-8.8,21.1-4.4-3.1-6.3-8.9-4.1-14.1Z"/>
        </g>
      </g>
    </g>
  </g>
</svg>